<?xml version="1.0" encoding="UTF-8"?>
<svg id="Layer_2" data-name="Layer 2" xmlns="http://www.w3.org/2000/svg" xmlns:xlink="http://www.w3.org/1999/xlink" viewBox="0 0 395.71 140.43">
  <defs>
    <style>
      .cls-1 {
        stroke: url(#linear-gradient);
        stroke-opacity: .15;
      }

      .cls-1, .cls-2, .cls-3, .cls-4 {
        fill: none;
        stroke-miterlimit: 10;
      }

      .cls-5 {
        fill: #fff;
      }

      .cls-5, .cls-3 {
        opacity: .15;
      }

      .cls-2 {
        stroke: rgba(255, 255, 255, .15);
      }

      .cls-6 {
        opacity: .33;
      }

      .cls-3 {
        stroke: #fff;
      }

      .cls-4 {
        stroke: rgba(242, 242, 242, .15);
      }
    </style>
    <linearGradient id="linear-gradient" x1="105.03" y1="-16.61" x2="80.03" y2="-16.61" gradientTransform="translate(47.14 220.46) rotate(-90)" gradientUnits="userSpaceOnUse">
      <stop offset="0" stop-color="#fff"/>
      <stop offset="1" stop-color="#fff" stop-opacity="0"/>
    </linearGradient>
  </defs>
  <g id="Header">
    <g class="cls-6">
      <line class="cls-2" x1="30.53" y1="108.43" x2="390.53" y2="108.43"/>
      <line class="cls-2" x1="30.53" y1="75.43" x2="390.53" y2="75.43"/>
      <line class="cls-2" x1="30.53" y1="66.43" x2="390.53" y2="66.43"/>
      <line class="cls-2" x1="30.53" y1="66.43" x2="30.53" y2="115.43"/>
      <line class="cls-2" x1="30.53" y1="115.43" x2="390.53" y2="115.43"/>
      <line class="cls-4" x1="30.53" y1="66.43" x2="5.53" y2="66.43"/>
      <line class="cls-4" x1="30.53" y1="75.43" x2="5.53" y2="75.43"/>
      <line class="cls-4" x1="30.53" y1="115.43" x2="5.53" y2="115.43"/>
      <line class="cls-4" x1="30.53" y1="108.43" x2="5.53" y2="108.43"/>
      <line class="cls-4" x1="30.53" y1="66.43" x2="30.53" y2="41.43"/>
      <line class="cls-1" x1="30.53" y1="115.43" x2="30.53" y2="140.43"/>
      <line class="cls-2" x1="62.53" y1="66.43" x2="62.53" y2="115.43"/>
      <line class="cls-4" x1="62.53" y1="66.43" x2="62.53" y2="41.43"/>
      <g>
        <line class="cls-3" x1="32.35" y1="113.93" x2="36.35" y2="109.93"/>
        <line class="cls-3" x1="35.35" y1="113.93" x2="39.35" y2="109.93"/>
        <line class="cls-3" x1="38.35" y1="113.93" x2="42.35" y2="109.93"/>
        <line class="cls-3" x1="31.35" y1="111.93" x2="33.35" y2="109.93"/>
        <line class="cls-3" x1="41.35" y1="113.93" x2="45.35" y2="109.93"/>
        <line class="cls-3" x1="44.35" y1="113.93" x2="48.35" y2="109.93"/>
        <line class="cls-3" x1="47.35" y1="113.93" x2="51.35" y2="109.93"/>
        <line class="cls-3" x1="50.35" y1="113.93" x2="54.35" y2="109.93"/>
        <line class="cls-3" x1="53.35" y1="113.93" x2="57.35" y2="109.93"/>
        <line class="cls-3" x1="56.35" y1="113.93" x2="60.35" y2="109.93"/>
        <line class="cls-3" x1="59.35" y1="113.93" x2="61.35" y2="111.93"/>
        <line class="cls-3" x1=".35" y1="113.93" x2="4.35" y2="109.93"/>
        <line class="cls-3" x1="3.35" y1="113.93" x2="7.35" y2="109.93"/>
        <line class="cls-3" x1="6.35" y1="113.93" x2="10.35" y2="109.93"/>
        <line class="cls-3" x1="9.35" y1="113.93" x2="13.35" y2="109.93"/>
        <line class="cls-3" x1="12.35" y1="113.93" x2="16.35" y2="109.93"/>
        <line class="cls-3" x1="15.35" y1="113.93" x2="19.35" y2="109.93"/>
        <line class="cls-3" x1="18.35" y1="113.93" x2="22.35" y2="109.93"/>
        <line class="cls-3" x1="21.35" y1="113.93" x2="25.35" y2="109.93"/>
        <line class="cls-3" x1="24.35" y1="113.93" x2="28.35" y2="109.93"/>
        <line class="cls-3" x1="27.35" y1="113.93" x2="29.35" y2="111.93"/>
        <line class="cls-3" x1="64.35" y1="113.93" x2="68.35" y2="109.93"/>
        <line class="cls-3" x1="67.35" y1="113.93" x2="71.35" y2="109.93"/>
        <line class="cls-3" x1="70.35" y1="113.93" x2="74.35" y2="109.93"/>
        <line class="cls-3" x1="63.35" y1="111.93" x2="65.35" y2="109.93"/>
        <line class="cls-3" x1="73.35" y1="113.93" x2="77.35" y2="109.93"/>
        <line class="cls-3" x1="76.35" y1="113.93" x2="80.35" y2="109.93"/>
        <line class="cls-3" x1="79.35" y1="113.93" x2="83.35" y2="109.93"/>
        <line class="cls-3" x1="82.35" y1="113.93" x2="86.35" y2="109.93"/>
        <line class="cls-3" x1="85.35" y1="113.93" x2="89.35" y2="109.93"/>
        <line class="cls-3" x1="88.35" y1="113.93" x2="92.35" y2="109.93"/>
        <line class="cls-3" x1="91.35" y1="113.93" x2="95.35" y2="109.93"/>
        <line class="cls-3" x1="94.35" y1="113.93" x2="98.35" y2="109.93"/>
        <line class="cls-3" x1="97.35" y1="113.93" x2="101.35" y2="109.93"/>
        <line class="cls-3" x1="100.35" y1="113.93" x2="104.35" y2="109.93"/>
        <line class="cls-3" x1="103.35" y1="113.93" x2="107.35" y2="109.93"/>
        <line class="cls-3" x1="106.35" y1="113.93" x2="110.35" y2="109.93"/>
        <line class="cls-3" x1="109.35" y1="113.93" x2="113.35" y2="109.93"/>
        <line class="cls-3" x1="112.35" y1="113.93" x2="116.35" y2="109.93"/>
        <line class="cls-3" x1="115.35" y1="113.93" x2="119.35" y2="109.93"/>
        <line class="cls-3" x1="118.35" y1="113.93" x2="122.35" y2="109.93"/>
        <line class="cls-3" x1="121.35" y1="113.93" x2="125.35" y2="109.93"/>
        <line class="cls-3" x1="124.35" y1="113.93" x2="128.35" y2="109.93"/>
        <line class="cls-3" x1="127.35" y1="113.93" x2="131.35" y2="109.93"/>
        <line class="cls-3" x1="130.35" y1="113.93" x2="134.35" y2="109.93"/>
        <line class="cls-3" x1="133.35" y1="113.93" x2="137.35" y2="109.93"/>
        <line class="cls-3" x1="136.35" y1="113.93" x2="140.35" y2="109.93"/>
        <line class="cls-3" x1="139.35" y1="113.93" x2="143.35" y2="109.93"/>
        <line class="cls-3" x1="142.35" y1="113.93" x2="146.35" y2="109.93"/>
        <line class="cls-3" x1="145.35" y1="113.93" x2="149.35" y2="109.93"/>
        <line class="cls-3" x1="148.35" y1="113.93" x2="152.35" y2="109.93"/>
        <line class="cls-3" x1="151.35" y1="113.93" x2="155.35" y2="109.93"/>
        <line class="cls-3" x1="154.35" y1="113.93" x2="158.35" y2="109.93"/>
        <line class="cls-3" x1="157.35" y1="113.93" x2="161.35" y2="109.93"/>
        <line class="cls-3" x1="160.35" y1="113.93" x2="164.35" y2="109.93"/>
        <line class="cls-3" x1="163.35" y1="113.93" x2="167.35" y2="109.93"/>
        <line class="cls-3" x1="166.35" y1="113.93" x2="170.35" y2="109.93"/>
        <line class="cls-3" x1="169.35" y1="113.93" x2="173.35" y2="109.93"/>
        <line class="cls-3" x1="172.35" y1="113.93" x2="176.35" y2="109.93"/>
        <line class="cls-3" x1="175.35" y1="113.93" x2="179.35" y2="109.93"/>
        <line class="cls-3" x1="178.35" y1="113.93" x2="182.35" y2="109.93"/>
        <line class="cls-3" x1="181.35" y1="113.93" x2="185.35" y2="109.93"/>
        <line class="cls-3" x1="184.35" y1="113.93" x2="188.35" y2="109.93"/>
        <line class="cls-3" x1="187.35" y1="113.93" x2="191.35" y2="109.93"/>
        <line class="cls-3" x1="190.35" y1="113.93" x2="194.35" y2="109.93"/>
        <line class="cls-3" x1="193.35" y1="113.93" x2="197.35" y2="109.93"/>
        <line class="cls-3" x1="196.35" y1="113.93" x2="200.35" y2="109.93"/>
        <line class="cls-3" x1="199.35" y1="113.93" x2="203.35" y2="109.93"/>
        <line class="cls-3" x1="202.35" y1="113.93" x2="206.35" y2="109.93"/>
        <line class="cls-3" x1="205.35" y1="113.93" x2="209.35" y2="109.93"/>
        <line class="cls-3" x1="208.35" y1="113.93" x2="212.35" y2="109.93"/>
        <line class="cls-3" x1="211.35" y1="113.93" x2="215.35" y2="109.93"/>
        <line class="cls-3" x1="214.35" y1="113.93" x2="218.35" y2="109.93"/>
        <line class="cls-3" x1="217.35" y1="113.93" x2="221.35" y2="109.93"/>
        <line class="cls-3" x1="220.35" y1="113.93" x2="224.35" y2="109.93"/>
        <line class="cls-3" x1="223.35" y1="113.93" x2="227.35" y2="109.93"/>
        <line class="cls-3" x1="226.35" y1="113.93" x2="230.35" y2="109.93"/>
        <line class="cls-3" x1="229.35" y1="113.93" x2="233.35" y2="109.93"/>
        <line class="cls-3" x1="232.35" y1="113.93" x2="236.35" y2="109.93"/>
        <line class="cls-3" x1="235.35" y1="113.93" x2="239.35" y2="109.93"/>
        <line class="cls-3" x1="238.35" y1="113.93" x2="242.35" y2="109.93"/>
        <line class="cls-3" x1="241.35" y1="113.93" x2="245.35" y2="109.93"/>
        <line class="cls-3" x1="244.35" y1="113.93" x2="248.35" y2="109.93"/>
        <line class="cls-3" x1="247.35" y1="113.93" x2="251.35" y2="109.93"/>
        <line class="cls-3" x1="250.35" y1="113.93" x2="254.35" y2="109.93"/>
        <line class="cls-3" x1="253.35" y1="113.93" x2="257.35" y2="109.93"/>
        <line class="cls-3" x1="256.35" y1="113.93" x2="260.35" y2="109.93"/>
        <line class="cls-3" x1="259.35" y1="113.93" x2="263.35" y2="109.93"/>
        <line class="cls-3" x1="262.35" y1="113.93" x2="266.35" y2="109.93"/>
        <line class="cls-3" x1="265.35" y1="113.93" x2="269.35" y2="109.93"/>
        <line class="cls-3" x1="268.35" y1="113.93" x2="272.35" y2="109.93"/>
        <line class="cls-3" x1="271.35" y1="113.93" x2="275.35" y2="109.93"/>
        <line class="cls-3" x1="274.35" y1="113.93" x2="278.35" y2="109.93"/>
        <line class="cls-3" x1="277.35" y1="113.93" x2="281.35" y2="109.93"/>
        <line class="cls-3" x1="280.35" y1="113.93" x2="284.35" y2="109.93"/>
        <line class="cls-3" x1="283.35" y1="113.93" x2="287.35" y2="109.93"/>
        <line class="cls-3" x1="286.35" y1="113.93" x2="290.35" y2="109.93"/>
        <line class="cls-3" x1="289.35" y1="113.93" x2="293.35" y2="109.93"/>
        <line class="cls-3" x1="292.35" y1="113.93" x2="296.35" y2="109.93"/>
        <line class="cls-3" x1="295.35" y1="113.93" x2="299.35" y2="109.93"/>
        <line class="cls-3" x1="298.35" y1="113.93" x2="302.35" y2="109.93"/>
        <line class="cls-3" x1="301.35" y1="113.93" x2="305.35" y2="109.93"/>
        <line class="cls-3" x1="304.35" y1="113.93" x2="308.35" y2="109.93"/>
        <line class="cls-3" x1="307.35" y1="113.93" x2="311.35" y2="109.93"/>
        <line class="cls-3" x1="310.35" y1="113.93" x2="314.35" y2="109.93"/>
        <line class="cls-3" x1="313.35" y1="113.93" x2="317.35" y2="109.93"/>
        <line class="cls-3" x1="316.35" y1="113.93" x2="320.35" y2="109.93"/>
        <line class="cls-3" x1="319.35" y1="113.93" x2="323.35" y2="109.93"/>
        <line class="cls-3" x1="322.35" y1="113.93" x2="326.35" y2="109.93"/>
        <line class="cls-3" x1="325.35" y1="113.93" x2="329.35" y2="109.93"/>
        <line class="cls-3" x1="328.35" y1="113.93" x2="332.35" y2="109.93"/>
        <line class="cls-3" x1="331.35" y1="113.93" x2="335.35" y2="109.93"/>
        <line class="cls-3" x1="334.35" y1="113.93" x2="338.35" y2="109.93"/>
        <line class="cls-3" x1="337.35" y1="113.93" x2="341.35" y2="109.93"/>
        <line class="cls-3" x1="340.35" y1="113.93" x2="344.35" y2="109.93"/>
        <line class="cls-3" x1="343.35" y1="113.93" x2="347.35" y2="109.93"/>
        <line class="cls-3" x1="346.35" y1="113.93" x2="350.35" y2="109.93"/>
        <line class="cls-3" x1="349.35" y1="113.93" x2="353.35" y2="109.93"/>
        <line class="cls-3" x1="352.35" y1="113.93" x2="356.35" y2="109.93"/>
        <line class="cls-3" x1="355.35" y1="113.93" x2="359.35" y2="109.93"/>
        <line class="cls-3" x1="358.35" y1="113.93" x2="362.35" y2="109.93"/>
        <line class="cls-3" x1="361.35" y1="113.93" x2="365.35" y2="109.93"/>
        <line class="cls-3" x1="364.35" y1="113.93" x2="368.35" y2="109.93"/>
        <line class="cls-3" x1="367.35" y1="113.93" x2="371.35" y2="109.93"/>
        <line class="cls-3" x1="370.35" y1="113.93" x2="374.35" y2="109.93"/>
        <line class="cls-3" x1="373.35" y1="113.93" x2="377.35" y2="109.93"/>
        <line class="cls-3" x1="376.35" y1="113.93" x2="380.35" y2="109.93"/>
        <line class="cls-3" x1="379.35" y1="113.93" x2="383.35" y2="109.93"/>
        <line class="cls-3" x1="382.35" y1="113.93" x2="386.35" y2="109.93"/>
        <line class="cls-3" x1="385.35" y1="113.93" x2="389.35" y2="109.93"/>
        <line class="cls-3" x1="388.35" y1="113.93" x2="392.35" y2="109.93"/>
        <line class="cls-3" x1="391.35" y1="113.93" x2="395.35" y2="109.93"/>
      </g>
      <polyline class="cls-5" points="19.15 118.73 27.55 118.73 27.55 127.13"/>
      <circle class="cls-3" cx="85.75" cy="43.53" r="17.4"/>
      <circle class="cls-3" cx="135.75" cy="43.53" r="17.4"/>
      <rect class="cls-5" x="107.75" y="22.95" width="6" height="42.77"/>
      <rect class="cls-5" x="157.75" y="22.95" width="6" height="42.77"/>
      <circle class="cls-5" cx="85.75" cy="43.53" r="1.41"/>
      <circle class="cls-5" cx="135.75" cy="43.53" r="1.41"/>
      <line class="cls-3" x1="89.75" y1="43.53" x2="99.75" y2="43.53"/>
      <line class="cls-3" x1="139.75" y1="43.53" x2="149.75" y2="43.53"/>
      <g>
        <line class="cls-3" x1="32.35" y1="72.93" x2="36.35" y2="68.93"/>
        <line class="cls-3" x1="35.35" y1="72.93" x2="39.35" y2="68.93"/>
        <line class="cls-3" x1="38.35" y1="72.93" x2="42.35" y2="68.93"/>
        <line class="cls-3" x1="31.35" y1="70.93" x2="33.35" y2="68.93"/>
        <line class="cls-3" x1="41.35" y1="72.93" x2="45.35" y2="68.93"/>
        <line class="cls-3" x1="44.35" y1="72.93" x2="48.35" y2="68.93"/>
        <line class="cls-3" x1="47.35" y1="72.93" x2="51.35" y2="68.93"/>
        <line class="cls-3" x1="50.35" y1="72.93" x2="54.35" y2="68.93"/>
        <line class="cls-3" x1="53.35" y1="72.93" x2="57.35" y2="68.93"/>
        <line class="cls-3" x1="56.35" y1="72.93" x2="60.35" y2="68.93"/>
        <line class="cls-3" x1="59.35" y1="72.93" x2="61.35" y2="70.93"/>
        <line class="cls-3" x1=".35" y1="72.93" x2="4.35" y2="68.93"/>
        <line class="cls-3" x1="3.35" y1="72.93" x2="7.35" y2="68.93"/>
        <line class="cls-3" x1="6.35" y1="72.93" x2="10.35" y2="68.93"/>
        <line class="cls-3" x1="9.35" y1="72.93" x2="13.35" y2="68.93"/>
        <line class="cls-3" x1="12.35" y1="72.93" x2="16.35" y2="68.93"/>
        <line class="cls-3" x1="15.35" y1="72.93" x2="19.35" y2="68.93"/>
        <line class="cls-3" x1="18.35" y1="72.93" x2="22.35" y2="68.93"/>
        <line class="cls-3" x1="21.35" y1="72.93" x2="25.35" y2="68.93"/>
        <line class="cls-3" x1="24.35" y1="72.93" x2="28.35" y2="68.93"/>
        <line class="cls-3" x1="27.35" y1="72.93" x2="29.35" y2="70.93"/>
        <line class="cls-3" x1="64.35" y1="72.93" x2="68.35" y2="68.93"/>
        <line class="cls-3" x1="67.35" y1="72.93" x2="71.35" y2="68.93"/>
        <line class="cls-3" x1="70.35" y1="72.93" x2="74.35" y2="68.93"/>
        <line class="cls-3" x1="63.35" y1="70.93" x2="65.35" y2="68.93"/>
        <line class="cls-3" x1="73.35" y1="72.93" x2="77.35" y2="68.93"/>
        <line class="cls-3" x1="76.35" y1="72.93" x2="80.35" y2="68.93"/>
        <line class="cls-3" x1="79.35" y1="72.93" x2="83.35" y2="68.93"/>
        <line class="cls-3" x1="82.35" y1="72.93" x2="86.35" y2="68.93"/>
        <line class="cls-3" x1="85.35" y1="72.93" x2="89.35" y2="68.93"/>
        <line class="cls-3" x1="88.35" y1="72.93" x2="92.35" y2="68.93"/>
        <line class="cls-3" x1="91.35" y1="72.93" x2="95.35" y2="68.93"/>
        <line class="cls-3" x1="94.35" y1="72.93" x2="98.35" y2="68.93"/>
        <line class="cls-3" x1="97.35" y1="72.93" x2="101.35" y2="68.93"/>
        <line class="cls-3" x1="100.35" y1="72.93" x2="104.35" y2="68.93"/>
        <line class="cls-3" x1="103.35" y1="72.93" x2="107.35" y2="68.93"/>
        <line class="cls-3" x1="106.35" y1="72.93" x2="110.35" y2="68.93"/>
        <line class="cls-3" x1="109.35" y1="72.93" x2="113.35" y2="68.93"/>
        <line class="cls-3" x1="112.35" y1="72.93" x2="116.35" y2="68.93"/>
        <line class="cls-3" x1="115.35" y1="72.93" x2="119.35" y2="68.93"/>
        <line class="cls-3" x1="118.35" y1="72.93" x2="122.35" y2="68.93"/>
        <line class="cls-3" x1="121.35" y1="72.93" x2="125.35" y2="68.93"/>
        <line class="cls-3" x1="124.35" y1="72.93" x2="128.35" y2="68.93"/>
        <line class="cls-3" x1="127.35" y1="72.93" x2="131.35" y2="68.93"/>
        <line class="cls-3" x1="130.35" y1="72.93" x2="134.35" y2="68.93"/>
        <line class="cls-3" x1="133.35" y1="72.93" x2="137.35" y2="68.93"/>
        <line class="cls-3" x1="136.35" y1="72.93" x2="140.35" y2="68.93"/>
        <line class="cls-3" x1="139.35" y1="72.93" x2="143.35" y2="68.93"/>
        <line class="cls-3" x1="142.35" y1="72.93" x2="146.35" y2="68.93"/>
        <line class="cls-3" x1="145.35" y1="72.93" x2="149.35" y2="68.93"/>
        <line class="cls-3" x1="148.35" y1="72.93" x2="152.35" y2="68.93"/>
        <line class="cls-3" x1="151.35" y1="72.93" x2="155.35" y2="68.93"/>
        <line class="cls-3" x1="154.35" y1="72.93" x2="158.35" y2="68.93"/>
        <line class="cls-3" x1="157.35" y1="72.93" x2="161.35" y2="68.93"/>
        <line class="cls-3" x1="160.35" y1="72.93" x2="164.35" y2="68.93"/>
        <line class="cls-3" x1="163.35" y1="72.93" x2="167.35" y2="68.93"/>
        <line class="cls-3" x1="166.35" y1="72.93" x2="170.35" y2="68.93"/>
        <line class="cls-3" x1="169.35" y1="72.93" x2="173.35" y2="68.93"/>
        <line class="cls-3" x1="172.35" y1="72.93" x2="176.35" y2="68.93"/>
        <line class="cls-3" x1="175.35" y1="72.93" x2="179.35" y2="68.93"/>
        <line class="cls-3" x1="178.35" y1="72.93" x2="182.35" y2="68.93"/>
        <line class="cls-3" x1="181.35" y1="72.93" x2="185.35" y2="68.93"/>
        <line class="cls-3" x1="184.35" y1="72.93" x2="188.35" y2="68.93"/>
        <line class="cls-3" x1="187.35" y1="72.93" x2="191.35" y2="68.93"/>
        <line class="cls-3" x1="190.35" y1="72.93" x2="194.35" y2="68.93"/>
        <line class="cls-3" x1="193.35" y1="72.93" x2="197.35" y2="68.93"/>
        <line class="cls-3" x1="196.35" y1="72.93" x2="200.35" y2="68.93"/>
        <line class="cls-3" x1="199.35" y1="72.93" x2="203.35" y2="68.93"/>
        <line class="cls-3" x1="202.35" y1="72.93" x2="206.35" y2="68.93"/>
        <line class="cls-3" x1="205.35" y1="72.93" x2="209.35" y2="68.93"/>
        <line class="cls-3" x1="208.35" y1="72.93" x2="212.35" y2="68.93"/>
        <line class="cls-3" x1="211.35" y1="72.93" x2="215.35" y2="68.93"/>
        <line class="cls-3" x1="214.35" y1="72.93" x2="218.35" y2="68.93"/>
        <line class="cls-3" x1="217.35" y1="72.93" x2="221.35" y2="68.93"/>
        <line class="cls-3" x1="220.35" y1="72.93" x2="224.35" y2="68.93"/>
        <line class="cls-3" x1="223.35" y1="72.93" x2="227.35" y2="68.93"/>
        <line class="cls-3" x1="226.35" y1="72.93" x2="230.35" y2="68.93"/>
        <line class="cls-3" x1="229.35" y1="72.93" x2="233.35" y2="68.93"/>
        <line class="cls-3" x1="232.35" y1="72.93" x2="236.35" y2="68.93"/>
        <line class="cls-3" x1="235.35" y1="72.93" x2="239.35" y2="68.93"/>
        <line class="cls-3" x1="238.35" y1="72.93" x2="242.35" y2="68.93"/>
        <line class="cls-3" x1="241.35" y1="72.93" x2="245.35" y2="68.93"/>
        <line class="cls-3" x1="244.35" y1="72.93" x2="248.35" y2="68.93"/>
        <line class="cls-3" x1="247.35" y1="72.93" x2="251.35" y2="68.93"/>
        <line class="cls-3" x1="250.35" y1="72.93" x2="254.35" y2="68.93"/>
        <line class="cls-3" x1="253.35" y1="72.93" x2="257.35" y2="68.93"/>
        <line class="cls-3" x1="256.35" y1="72.93" x2="260.35" y2="68.93"/>
        <line class="cls-3" x1="259.35" y1="72.93" x2="263.35" y2="68.93"/>
        <line class="cls-3" x1="262.35" y1="72.93" x2="266.35" y2="68.93"/>
        <line class="cls-3" x1="265.35" y1="72.93" x2="269.35" y2="68.93"/>
        <line class="cls-3" x1="268.35" y1="72.93" x2="272.35" y2="68.93"/>
        <line class="cls-3" x1="271.35" y1="72.93" x2="275.35" y2="68.93"/>
        <line class="cls-3" x1="274.35" y1="72.93" x2="278.35" y2="68.93"/>
        <line class="cls-3" x1="277.35" y1="72.93" x2="281.35" y2="68.93"/>
        <line class="cls-3" x1="280.35" y1="72.93" x2="284.35" y2="68.93"/>
        <line class="cls-3" x1="283.35" y1="72.93" x2="287.35" y2="68.93"/>
        <line class="cls-3" x1="286.35" y1="72.93" x2="290.35" y2="68.93"/>
        <line class="cls-3" x1="289.35" y1="72.93" x2="293.35" y2="68.93"/>
        <line class="cls-3" x1="292.35" y1="72.93" x2="296.35" y2="68.93"/>
        <line class="cls-3" x1="295.35" y1="72.93" x2="299.35" y2="68.93"/>
        <line class="cls-3" x1="298.35" y1="72.93" x2="302.35" y2="68.93"/>
        <line class="cls-3" x1="301.35" y1="72.93" x2="305.35" y2="68.93"/>
        <line class="cls-3" x1="304.35" y1="72.93" x2="308.35" y2="68.93"/>
        <line class="cls-3" x1="307.35" y1="72.93" x2="311.35" y2="68.93"/>
        <line class="cls-3" x1="310.35" y1="72.93" x2="314.35" y2="68.93"/>
        <line class="cls-3" x1="313.35" y1="72.93" x2="317.35" y2="68.93"/>
        <line class="cls-3" x1="316.35" y1="72.93" x2="320.35" y2="68.93"/>
        <line class="cls-3" x1="319.35" y1="72.93" x2="323.35" y2="68.93"/>
        <line class="cls-3" x1="322.35" y1="72.93" x2="326.35" y2="68.93"/>
        <line class="cls-3" x1="325.35" y1="72.93" x2="329.35" y2="68.93"/>
        <line class="cls-3" x1="328.35" y1="72.93" x2="332.35" y2="68.93"/>
        <line class="cls-3" x1="331.35" y1="72.93" x2="335.35" y2="68.93"/>
        <line class="cls-3" x1="334.35" y1="72.93" x2="338.35" y2="68.93"/>
        <line class="cls-3" x1="337.35" y1="72.93" x2="341.35" y2="68.93"/>
        <line class="cls-3" x1="340.35" y1="72.93" x2="344.35" y2="68.93"/>
        <line class="cls-3" x1="343.35" y1="72.93" x2="347.35" y2="68.93"/>
        <line class="cls-3" x1="346.35" y1="72.93" x2="350.35" y2="68.93"/>
        <line class="cls-3" x1="349.35" y1="72.93" x2="353.35" y2="68.93"/>
        <line class="cls-3" x1="352.35" y1="72.93" x2="356.35" y2="68.93"/>
        <line class="cls-3" x1="355.35" y1="72.93" x2="359.35" y2="68.93"/>
        <line class="cls-3" x1="358.35" y1="72.93" x2="362.35" y2="68.93"/>
        <line class="cls-3" x1="361.35" y1="72.93" x2="365.35" y2="68.93"/>
        <line class="cls-3" x1="364.35" y1="72.93" x2="368.35" y2="68.93"/>
        <line class="cls-3" x1="367.35" y1="72.93" x2="371.35" y2="68.93"/>
        <line class="cls-3" x1="370.35" y1="72.93" x2="374.35" y2="68.93"/>
        <line class="cls-3" x1="373.35" y1="72.93" x2="377.35" y2="68.93"/>
        <line class="cls-3" x1="376.35" y1="72.93" x2="380.35" y2="68.93"/>
        <line class="cls-3" x1="379.35" y1="72.93" x2="383.35" y2="68.93"/>
        <line class="cls-3" x1="382.35" y1="72.93" x2="386.35" y2="68.93"/>
        <line class="cls-3" x1="385.35" y1="72.93" x2="389.35" y2="68.93"/>
        <line class="cls-3" x1="388.35" y1="72.93" x2="392.35" y2="68.93"/>
        <line class="cls-3" x1="391.35" y1="72.93" x2="395.35" y2="68.93"/>
      </g>
      <g>
        <line class="cls-3" x1="165.36" y1="60.35" x2="169.36" y2="64.35"/>
        <line class="cls-3" x1="165.36" y1="57.35" x2="172.36" y2="64.35"/>
        <line class="cls-3" x1="165.36" y1="54.35" x2="175.36" y2="64.35"/>
        <line class="cls-3" x1="165.36" y1="51.35" x2="178.36" y2="64.35"/>
        <line class="cls-3" x1="165.36" y1="48.35" x2="181.36" y2="64.35"/>
        <line class="cls-3" x1="165.36" y1="63.35" x2="166.36" y2="64.35"/>
        <line class="cls-3" x1="165.36" y1="45.35" x2="184.36" y2="64.35"/>
        <line class="cls-3" x1="165.36" y1="42.35" x2="187.36" y2="64.35"/>
        <line class="cls-3" x1="165.36" y1="39.35" x2="190.36" y2="64.35"/>
        <line class="cls-3" x1="165.36" y1="36.35" x2="190.36" y2="61.35"/>
        <line class="cls-3" x1="165.36" y1="33.35" x2="190.36" y2="58.35"/>
        <line class="cls-3" x1="165.36" y1="30.35" x2="190.36" y2="55.35"/>
        <line class="cls-3" x1="165.36" y1="27.35" x2="190.36" y2="52.35"/>
        <line class="cls-3" x1="165.36" y1="24.35" x2="190.36" y2="49.35"/>
        <line class="cls-3" x1="165.36" y1="21.35" x2="190.36" y2="46.35"/>
        <line class="cls-3" x1="165.36" y1="18.35" x2="190.36" y2="43.35"/>
        <line class="cls-3" x1="165.36" y1="15.35" x2="190.36" y2="40.35"/>
        <line class="cls-3" x1="165.36" y1="12.35" x2="190.36" y2="37.35"/>
        <line class="cls-3" x1="165.36" y1="9.35" x2="190.36" y2="34.35"/>
        <line class="cls-3" x1="165.36" y1="6.35" x2="190.36" y2="31.35"/>
        <line class="cls-3" x1="165.36" y1="3.35" x2="190.36" y2="28.35"/>
        <line class="cls-3" x1="165.36" y1=".35" x2="190.36" y2="25.35"/>
      </g>
    </g>
  </g>
</svg>