<?xml version="1.0" encoding="UTF-8" ?>
<svg version="1.1" width="32" height="32" xmlns="http://www.w3.org/2000/svg" shape-rendering="crispEdges">
<rect x="0" y="0" width="5" height="9" fill="#A5A5A5" />
<rect x="5" y="0" width="23" height="1" fill="#C96A29" />
<rect x="28" y="0" width="4" height="6" fill="#A5A5A5" />
<rect x="5" y="1" width="17" height="1" fill="#C96A29" />
<rect x="22" y="1" width="2" height="1" fill="#183A41" />
<rect x="24" y="1" width="1" height="7" fill="#5FCDE4" />
<rect x="25" y="1" width="3" height="11" fill="#C96A29" />
<rect x="5" y="2" width="3" height="10" fill="#C96A29" />
<rect x="8" y="2" width="8" height="1" fill="#000000" />
<rect x="16" y="2" width="5" height="1" fill="#C96A29" />
<rect x="21" y="2" width="2" height="1" fill="#183A41" />
<rect x="23" y="2" width="1" height="7" fill="#5FCDE4" />
<rect x="8" y="3" width="12" height="1" fill="#C96A29" />
<rect x="20" y="3" width="2" height="7" fill="#3F8F9F" />
<rect x="22" y="3" width="1" height="6" fill="#5FCDE4" />
<rect x="8" y="4" width="8" height="1" fill="#000000" />
<rect x="16" y="4" width="4" height="8" fill="#C96A29" />
<rect x="8" y="5" width="8" height="1" fill="#C96A29" />
<rect x="8" y="6" width="3" height="3" fill="#FBF236" />
<rect x="11" y="6" width="1" height="6" fill="#C96A29" />
<rect x="12" y="6" width="4" height="3" fill="#000000" />
<rect x="28" y="6" width="4" height="3" fill="#8B2929" />
<rect x="24" y="8" width="1" height="4" fill="#C96A29" />
<rect x="0" y="9" width="5" height="2" fill="#7BB941" />
<rect x="8" y="9" width="3" height="3" fill="#C96A29" />
<rect x="12" y="9" width="4" height="3" fill="#C96A29" />
<rect x="22" y="9" width="1" height="1" fill="#00D5FF" />
<rect x="23" y="9" width="1" height="3" fill="#C96A29" />
<rect x="28" y="9" width="2" height="2" fill="#A25621" />
<rect x="30" y="9" width="2" height="1" fill="#8B2929" />
<rect x="20" y="10" width="3" height="2" fill="#C96A29" />
<rect x="30" y="10" width="1" height="3" fill="#B45B1F" />
<rect x="31" y="10" width="1" height="3" fill="#8B2929" />
<rect x="0" y="11" width="3" height="1" fill="#7BB941" />
<rect x="3" y="11" width="1" height="2" fill="#CAC32C" />
<rect x="4" y="11" width="1" height="2" fill="#7BB941" />
<rect x="28" y="11" width="2" height="1" fill="#B45B1F" />
<rect x="0" y="12" width="2" height="1" fill="#7BB941" />
<rect x="2" y="12" width="1" height="1" fill="#CAC32C" />
<rect x="5" y="12" width="2" height="1" fill="#7BB941" />
<rect x="7" y="12" width="7" height="1" fill="#337380" />
<rect x="14" y="12" width="1" height="1" fill="#737A3C" />
<rect x="15" y="12" width="11" height="1" fill="#CDCDCD" />
<rect x="26" y="12" width="1" height="1" fill="#8B2929" />
<rect x="27" y="12" width="2" height="1" fill="#B45B1F" />
<rect x="29" y="12" width="1" height="1" fill="#000000" />
<rect x="0" y="13" width="1" height="7" fill="#99E550" />
<rect x="1" y="13" width="3" height="1" fill="#FBF236" />
<rect x="4" y="13" width="3" height="2" fill="#99E550" />
<rect x="7" y="13" width="2" height="3" fill="#000000" />
<rect x="9" y="13" width="6" height="1" fill="#3F8F9F" />
<rect x="15" y="13" width="2" height="11" fill="#FFFFFF" />
<rect x="17" y="13" width="9" height="1" fill="#000000" />
<rect x="26" y="13" width="1" height="11" fill="#AC3232" />
<rect x="27" y="13" width="1" height="4" fill="#DF7126" />
<rect x="28" y="13" width="1" height="2" fill="#000000" />
<rect x="29" y="13" width="1" height="2" fill="#FFFFFF" />
<rect x="30" y="13" width="1" height="4" fill="#DF7126" />
<rect x="31" y="13" width="1" height="11" fill="#AC3232" />
<rect x="1" y="14" width="2" height="1" fill="#FBF236" />
<rect x="3" y="14" width="1" height="2" fill="#99E550" />
<rect x="9" y="14" width="1" height="2" fill="#000000" />
<rect x="10" y="14" width="5" height="4" fill="#639BFF" />
<rect x="17" y="14" width="9" height="2" fill="#FFFFFF" />
<rect x="1" y="15" width="2" height="1" fill="#99E550" />
<rect x="4" y="15" width="1" height="2" fill="#FFFFFF" />
<rect x="5" y="15" width="2" height="5" fill="#99E550" />
<rect x="28" y="15" width="1" height="1" fill="#FFFFFF" />
<rect x="29" y="15" width="1" height="3" fill="#DF7126" />
<rect x="1" y="16" width="3" height="2" fill="#FFFFFF" />
<rect x="7" y="16" width="3" height="2" fill="#639BFF" />
<rect x="17" y="16" width="7" height="2" fill="#000000" />
<rect x="24" y="16" width="2" height="3" fill="#FFFFFF" />
<rect x="28" y="16" width="1" height="2" fill="#DF7126" />
<rect x="4" y="17" width="1" height="3" fill="#99E550" />
<rect x="27" y="17" width="1" height="1" fill="#FFFFFF" />
<rect x="30" y="17" width="1" height="1" fill="#FFFFFF" />
<rect x="1" y="18" width="3" height="2" fill="#99E550" />
<rect x="7" y="18" width="8" height="1" fill="#5FCDE4" />
<rect x="17" y="18" width="7" height="1" fill="#FFFFFF" />
<rect x="27" y="18" width="1" height="6" fill="#AC3232" />
<rect x="28" y="18" width="2" height="1" fill="#FFFFFF" />
<rect x="30" y="18" width="1" height="4" fill="#AC3232" />
<rect x="7" y="19" width="3" height="1" fill="#000000" />
<rect x="10" y="19" width="3" height="2" fill="#5FCDE4" />
<rect x="13" y="19" width="1" height="1" fill="#000000" />
<rect x="14" y="19" width="1" height="2" fill="#5FCDE4" />
<rect x="17" y="19" width="4" height="1" fill="#000000" />
<rect x="21" y="19" width="1" height="2" fill="#FFFFFF" />
<rect x="22" y="19" width="4" height="1" fill="#000000" />
<rect x="28" y="19" width="2" height="2" fill="#AC3232" />
<rect x="0" y="20" width="10" height="1" fill="#5FCDE4" />
<rect x="13" y="20" width="1" height="1" fill="#5FCDE4" />
<rect x="17" y="20" width="4" height="1" fill="#FFFFFF" />
<rect x="22" y="20" width="4" height="1" fill="#FFFFFF" />
<rect x="0" y="21" width="7" height="1" fill="#5FCDE4" />
<rect x="7" y="21" width="8" height="2" fill="#FFFFFF" />
<rect x="17" y="21" width="9" height="1" fill="#000000" />
<rect x="28" y="21" width="2" height="1" fill="#000000" />
<rect x="0" y="22" width="7" height="2" fill="#3F8F9F" />
<rect x="17" y="22" width="9" height="1" fill="#FFFFFF" />
<rect x="28" y="22" width="1" height="2" fill="#AC3232" />
<rect x="29" y="22" width="2" height="1" fill="#FFFFFF" />
<rect x="7" y="23" width="8" height="1" fill="#000000" />
<rect x="17" y="23" width="5" height="1" fill="#000000" />
<rect x="22" y="23" width="2" height="1" fill="#FFFFFF" />
<rect x="24" y="23" width="2" height="1" fill="#000000" />
<rect x="29" y="23" width="2" height="1" fill="#AC3232" />
<rect x="0" y="24" width="7" height="1" fill="#A5A5A5" />
<rect x="7" y="24" width="2" height="1" fill="#CDCDCD" />
<rect x="9" y="24" width="15" height="2" fill="#D77BBA" />
<rect x="24" y="24" width="2" height="1" fill="#CDCDCD" />
<rect x="26" y="24" width="1" height="3" fill="#8B2929" />
<rect x="27" y="24" width="4" height="2" fill="#CAC32C" />
<rect x="31" y="24" width="1" height="3" fill="#8B2929" />
<rect x="0" y="25" width="6" height="7" fill="#A5A5A5" />
<rect x="6" y="25" width="3" height="1" fill="#000000" />
<rect x="24" y="25" width="2" height="1" fill="#000000" />
<rect x="6" y="26" width="1" height="1" fill="#A5A5A5" />
<rect x="7" y="26" width="2" height="1" fill="#CDCDCD" />
<rect x="9" y="26" width="2" height="1" fill="#D77BBA" />
<rect x="11" y="26" width="1" height="2" fill="#000000" />
<rect x="12" y="26" width="1" height="1" fill="#D77BBA" />
<rect x="13" y="26" width="2" height="1" fill="#000000" />
<rect x="15" y="26" width="2" height="1" fill="#D77BBA" />
<rect x="17" y="26" width="1" height="1" fill="#000000" />
<rect x="18" y="26" width="2" height="1" fill="#D77BBA" />
<rect x="20" y="26" width="1" height="1" fill="#000000" />
<rect x="21" y="26" width="1" height="1" fill="#D77BBA" />
<rect x="22" y="26" width="1" height="2" fill="#000000" />
<rect x="23" y="26" width="1" height="1" fill="#D77BBA" />
<rect x="24" y="26" width="2" height="2" fill="#CDCDCD" />
<rect x="27" y="26" width="4" height="1" fill="#8B2929" />
<rect x="6" y="27" width="2" height="1" fill="#000000" />
<rect x="8" y="27" width="1" height="5" fill="#CDCDCD" />
<rect x="9" y="27" width="2" height="3" fill="#A96192" />
<rect x="12" y="27" width="1" height="3" fill="#A96192" />
<rect x="13" y="27" width="1" height="1" fill="#000000" />
<rect x="14" y="27" width="2" height="1" fill="#A96192" />
<rect x="16" y="27" width="1" height="2" fill="#000000" />
<rect x="17" y="27" width="1" height="2" fill="#A96192" />
<rect x="18" y="27" width="1" height="2" fill="#000000" />
<rect x="19" y="27" width="2" height="1" fill="#A96192" />
<rect x="21" y="27" width="1" height="2" fill="#000000" />
<rect x="23" y="27" width="1" height="3" fill="#A96192" />
<rect x="26" y="27" width="6" height="1" fill="#A5A5A5" />
<rect x="6" y="28" width="1" height="4" fill="#A5A5A5" />
<rect x="7" y="28" width="1" height="4" fill="#CDCDCD" />
<rect x="11" y="28" width="1" height="1" fill="#A96192" />
<rect x="13" y="28" width="1" height="1" fill="#A96192" />
<rect x="14" y="28" width="1" height="1" fill="#000000" />
<rect x="15" y="28" width="1" height="2" fill="#A96192" />
<rect x="19" y="28" width="1" height="2" fill="#A96192" />
<rect x="20" y="28" width="1" height="2" fill="#000000" />
<rect x="22" y="28" width="1" height="1" fill="#A96192" />
<rect x="24" y="28" width="4" height="1" fill="#000000" />
<rect x="28" y="28" width="4" height="4" fill="#A5A5A5" />
<rect x="11" y="29" width="1" height="1" fill="#000000" />
<rect x="13" y="29" width="1" height="1" fill="#000000" />
<rect x="14" y="29" width="1" height="1" fill="#A96192" />
<rect x="16" y="29" width="1" height="1" fill="#A96192" />
<rect x="17" y="29" width="1" height="1" fill="#000000" />
<rect x="18" y="29" width="1" height="1" fill="#A96192" />
<rect x="21" y="29" width="1" height="1" fill="#A96192" />
<rect x="22" y="29" width="1" height="1" fill="#000000" />
<rect x="24" y="29" width="1" height="1" fill="#CDCDCD" />
<rect x="25" y="29" width="1" height="3" fill="#000000" />
<rect x="26" y="29" width="1" height="1" fill="#A5A5A5" />
<rect x="27" y="29" width="1" height="3" fill="#000000" />
<rect x="9" y="30" width="15" height="2" fill="#7C436A" />
<rect x="24" y="30" width="1" height="1" fill="#000000" />
<rect x="26" y="30" width="1" height="1" fill="#000000" />
<rect x="24" y="31" width="1" height="1" fill="#CDCDCD" />
<rect x="26" y="31" width="1" height="1" fill="#A5A5A5" />
</svg>