<?xml version="1.0" encoding="UTF-8" ?>
<svg version="1.1" width="32" height="32" xmlns="http://www.w3.org/2000/svg" shape-rendering="crispEdges">
<rect x="0" y="0" width="32" height="1" fill="#FFFFFF" />
<rect x="0" y="1" width="7" height="1" fill="#FFFFFF" />
<rect x="7" y="1" width="3" height="1" fill="#9BADB7" />
<rect x="10" y="1" width="5" height="1" fill="#FFFFFF" />
<rect x="15" y="1" width="1" height="1" fill="#9BADB7" />
<rect x="16" y="1" width="16" height="2" fill="#FFFFFF" />
<rect x="0" y="2" width="6" height="1" fill="#FFFFFF" />
<rect x="6" y="2" width="1" height="1" fill="#9BADB7" />
<rect x="7" y="2" width="7" height="1" fill="#FFFFFF" />
<rect x="14" y="2" width="1" height="1" fill="#9BADB7" />
<rect x="15" y="2" width="1" height="4" fill="#FFFFFF" />
<rect x="0" y="3" width="5" height="1" fill="#FFFFFF" />
<rect x="5" y="3" width="1" height="2" fill="#9BADB7" />
<rect x="6" y="3" width="3" height="1" fill="#FFFFFF" />
<rect x="9" y="3" width="3" height="1" fill="#9BADB7" />
<rect x="12" y="3" width="1" height="1" fill="#FFFFFF" />
<rect x="13" y="3" width="1" height="2" fill="#9BADB7" />
<rect x="14" y="3" width="1" height="3" fill="#FFFFFF" />
<rect x="16" y="3" width="10" height="1" fill="#FFFFFF" />
<rect x="26" y="3" width="1" height="1" fill="#6ABE30" />
<rect x="27" y="3" width="1" height="2" fill="#FFFFFF" />
<rect x="28" y="3" width="1" height="1" fill="#AC3232" />
<rect x="29" y="3" width="3" height="1" fill="#FFFFFF" />
<rect x="0" y="4" width="3" height="4" fill="#9BADB7" />
<rect x="3" y="4" width="1" height="2" fill="#FFFFFF" />
<rect x="4" y="4" width="1" height="1" fill="#9BADB7" />
<rect x="6" y="4" width="1" height="1" fill="#9BADB7" />
<rect x="7" y="4" width="1" height="2" fill="#FFFFFF" />
<rect x="8" y="4" width="1" height="1" fill="#9BADB7" />
<rect x="9" y="4" width="1" height="2" fill="#FFFFFF" />
<rect x="10" y="4" width="1" height="1" fill="#9BADB7" />
<rect x="11" y="4" width="1" height="2" fill="#FFFFFF" />
<rect x="12" y="4" width="1" height="1" fill="#9BADB7" />
<rect x="16" y="4" width="9" height="4" fill="#9BADB7" />
<rect x="25" y="4" width="2" height="1" fill="#FFFFFF" />
<rect x="28" y="4" width="2" height="1" fill="#FFFFFF" />
<rect x="30" y="4" width="2" height="4" fill="#9BADB7" />
<rect x="4" y="5" width="3" height="1" fill="#FFFFFF" />
<rect x="8" y="5" width="1" height="1" fill="#FFFFFF" />
<rect x="10" y="5" width="1" height="1" fill="#FFFFFF" />
<rect x="12" y="5" width="2" height="1" fill="#FFFFFF" />
<rect x="25" y="5" width="5" height="3" fill="#9BADB7" />
<rect x="3" y="6" width="13" height="2" fill="#9BADB7" />
<rect x="0" y="8" width="14" height="2" fill="#171819" />
<rect x="14" y="8" width="1" height="2" fill="#B4C1C9" />
<rect x="15" y="8" width="1" height="2" fill="#C0CBD2" />
<rect x="16" y="8" width="1" height="2" fill="#CDD6DB" />
<rect x="17" y="8" width="1" height="5" fill="#D9E0E4" />
<rect x="18" y="8" width="1" height="5" fill="#E6EAED" />
<rect x="19" y="8" width="1" height="5" fill="#F2F4F6" />
<rect x="20" y="8" width="1" height="4" fill="#FFFFFF" />
<rect x="21" y="8" width="11" height="2" fill="#171819" />
<rect x="0" y="10" width="8" height="1" fill="#1B1C1C" />
<rect x="8" y="10" width="2" height="2" fill="#424242" />
<rect x="10" y="10" width="7" height="1" fill="#696A6A" />
<rect x="21" y="10" width="11" height="1" fill="#1B1C1C" />
<rect x="0" y="11" width="8" height="1" fill="#1E1E1F" />
<rect x="10" y="11" width="7" height="1" fill="#000000" />
<rect x="21" y="11" width="11" height="1" fill="#1E1E1F" />
<rect x="0" y="12" width="15" height="1" fill="#212222" />
<rect x="15" y="12" width="1" height="1" fill="#C0CBD2" />
<rect x="16" y="12" width="1" height="1" fill="#CDD6DB" />
<rect x="20" y="12" width="12" height="1" fill="#212222" />
<rect x="0" y="13" width="17" height="1" fill="#242425" />
<rect x="17" y="13" width="1" height="1" fill="#FFFFFF" />
<rect x="18" y="13" width="14" height="1" fill="#242425" />
<rect x="0" y="14" width="17" height="1" fill="#282828" />
<rect x="17" y="14" width="1" height="7" fill="#2D0F00" />
<rect x="18" y="14" width="14" height="1" fill="#282828" />
<rect x="0" y="15" width="17" height="1" fill="#2B2B2B" />
<rect x="18" y="15" width="14" height="1" fill="#2B2B2B" />
<rect x="0" y="16" width="17" height="1" fill="#2E2E2E" />
<rect x="18" y="16" width="14" height="1" fill="#2E2E2E" />
<rect x="0" y="17" width="17" height="1" fill="#323131" />
<rect x="18" y="17" width="14" height="1" fill="#323131" />
<rect x="0" y="18" width="13" height="1" fill="#353434" />
<rect x="13" y="18" width="4" height="1" fill="#FFFFFF" />
<rect x="18" y="18" width="4" height="1" fill="#FFFFFF" />
<rect x="22" y="18" width="10" height="1" fill="#353434" />
<rect x="0" y="19" width="12" height="4" fill="#383737" />
<rect x="12" y="19" width="2" height="1" fill="#FFFFFF" />
<rect x="14" y="19" width="3" height="1" fill="#2D0F00" />
<rect x="18" y="19" width="3" height="1" fill="#2D0F00" />
<rect x="21" y="19" width="2" height="1" fill="#FFFFFF" />
<rect x="23" y="19" width="9" height="4" fill="#383737" />
<rect x="12" y="20" width="1" height="1" fill="#FFFFFF" />
<rect x="13" y="20" width="3" height="1" fill="#2D0F00" />
<rect x="16" y="20" width="1" height="1" fill="#A99389" />
<rect x="18" y="20" width="1" height="1" fill="#A99389" />
<rect x="19" y="20" width="3" height="1" fill="#2D0F00" />
<rect x="22" y="20" width="1" height="2" fill="#FFFFFF" />
<rect x="12" y="21" width="1" height="1" fill="#CBC9C9" />
<rect x="13" y="21" width="2" height="1" fill="#FFFFFF" />
<rect x="15" y="21" width="2" height="1" fill="#2D0F00" />
<rect x="17" y="21" width="1" height="1" fill="#A99389" />
<rect x="18" y="21" width="2" height="1" fill="#2D0F00" />
<rect x="20" y="21" width="2" height="2" fill="#FFFFFF" />
<rect x="12" y="22" width="1" height="1" fill="#0178B6" />
<rect x="13" y="22" width="1" height="1" fill="#CBC9C9" />
<rect x="14" y="22" width="6" height="1" fill="#FFFFFF" />
<rect x="22" y="22" width="1" height="1" fill="#0178B6" />
<rect x="0" y="23" width="1" height="1" fill="#ADBAC1" />
<rect x="1" y="23" width="2" height="1" fill="#B8C5CC" />
<rect x="3" y="23" width="1" height="1" fill="#ADBAC1" />
<rect x="4" y="23" width="1" height="1" fill="#B8C5CC" />
<rect x="5" y="23" width="1" height="1" fill="#B4C2C8" />
<rect x="6" y="23" width="1" height="1" fill="#ADBAC1" />
<rect x="7" y="23" width="1" height="1" fill="#B8C5CC" />
<rect x="8" y="23" width="1" height="1" fill="#B4C2C8" />
<rect x="9" y="23" width="1" height="1" fill="#ADBAC1" />
<rect x="10" y="23" width="1" height="1" fill="#B8C5CC" />
<rect x="11" y="23" width="1" height="1" fill="#B4C2C8" />
<rect x="12" y="23" width="1" height="5" fill="#CBC9C9" />
<rect x="13" y="23" width="1" height="2" fill="#0178B6" />
<rect x="14" y="23" width="1" height="1" fill="#D8D6D6" />
<rect x="15" y="23" width="1" height="2" fill="#E5E4E4" />
<rect x="16" y="23" width="1" height="1" fill="#F2F1F1" />
<rect x="17" y="23" width="4" height="1" fill="#FFFFFF" />
<rect x="21" y="23" width="1" height="2" fill="#16AFFF" />
<rect x="22" y="23" width="1" height="5" fill="#FFFFFF" />
<rect x="23" y="23" width="1" height="1" fill="#B8C5CC" />
<rect x="24" y="23" width="1" height="1" fill="#ADBAC1" />
<rect x="25" y="23" width="1" height="1" fill="#B8C5CC" />
<rect x="26" y="23" width="1" height="1" fill="#B4C2C8" />
<rect x="27" y="23" width="1" height="1" fill="#ADBAC1" />
<rect x="28" y="23" width="1" height="1" fill="#B8C5CC" />
<rect x="29" y="23" width="1" height="1" fill="#B4C2C8" />
<rect x="30" y="23" width="1" height="1" fill="#ADBAC1" />
<rect x="31" y="23" width="1" height="1" fill="#B8C5CC" />
<rect x="0" y="24" width="2" height="1" fill="#B8C5CC" />
<rect x="2" y="24" width="1" height="1" fill="#ADBAC1" />
<rect x="3" y="24" width="1" height="1" fill="#B8C5CC" />
<rect x="4" y="24" width="1" height="1" fill="#B4C2C8" />
<rect x="5" y="24" width="1" height="1" fill="#ADBAC1" />
<rect x="6" y="24" width="1" height="1" fill="#B8C5CC" />
<rect x="7" y="24" width="1" height="1" fill="#B4C2C8" />
<rect x="8" y="24" width="1" height="1" fill="#ADBAC1" />
<rect x="9" y="24" width="1" height="1" fill="#B8C5CC" />
<rect x="10" y="24" width="1" height="1" fill="#B4C2C8" />
<rect x="11" y="24" width="1" height="1" fill="#ADBAC1" />
<rect x="14" y="24" width="1" height="1" fill="#16AFFF" />
<rect x="16" y="24" width="1" height="1" fill="#16AFFF" />
<rect x="17" y="24" width="1" height="1" fill="#FFFFFF" />
<rect x="18" y="24" width="1" height="1" fill="#16AFFF" />
<rect x="19" y="24" width="1" height="1" fill="#FFFFFF" />
<rect x="20" y="24" width="1" height="1" fill="#16AFFF" />
<rect x="23" y="24" width="1" height="1" fill="#ADBAC1" />
<rect x="24" y="24" width="1" height="1" fill="#B8C5CC" />
<rect x="25" y="24" width="1" height="1" fill="#B4C2C8" />
<rect x="26" y="24" width="1" height="1" fill="#ADBAC1" />
<rect x="27" y="24" width="1" height="1" fill="#B8C5CC" />
<rect x="28" y="24" width="1" height="1" fill="#B4C2C8" />
<rect x="29" y="24" width="1" height="1" fill="#ADBAC1" />
<rect x="30" y="24" width="1" height="1" fill="#B8C5CC" />
<rect x="31" y="24" width="1" height="1" fill="#B4C2C8" />
<rect x="0" y="25" width="1" height="1" fill="#B8C5CC" />
<rect x="1" y="25" width="1" height="1" fill="#ADBAC1" />
<rect x="2" y="25" width="1" height="1" fill="#B8C5CC" />
<rect x="3" y="25" width="1" height="1" fill="#B4C2C8" />
<rect x="4" y="25" width="1" height="1" fill="#ADBAC1" />
<rect x="5" y="25" width="1" height="1" fill="#B8C5CC" />
<rect x="6" y="25" width="1" height="1" fill="#B4C2C8" />
<rect x="7" y="25" width="1" height="1" fill="#ADBAC1" />
<rect x="8" y="25" width="1" height="1" fill="#B8C5CC" />
<rect x="9" y="25" width="1" height="1" fill="#B4C2C8" />
<rect x="10" y="25" width="1" height="1" fill="#ADBAC1" />
<rect x="11" y="25" width="1" height="1" fill="#B8C5CC" />
<rect x="13" y="25" width="1" height="4" fill="#CBC9C9" />
<rect x="14" y="25" width="1" height="4" fill="#D8D6D6" />
<rect x="15" y="25" width="1" height="1" fill="#16AFFF" />
<rect x="16" y="25" width="1" height="5" fill="#F2F1F1" />
<rect x="17" y="25" width="1" height="1" fill="#16AFFF" />
<rect x="18" y="25" width="1" height="4" fill="#FFFFFF" />
<rect x="19" y="25" width="1" height="1" fill="#16AFFF" />
<rect x="20" y="25" width="2" height="3" fill="#FFFFFF" />
<rect x="23" y="25" width="1" height="1" fill="#B8C5CC" />
<rect x="24" y="25" width="1" height="1" fill="#B4C2C8" />
<rect x="25" y="25" width="1" height="1" fill="#ADBAC1" />
<rect x="26" y="25" width="1" height="1" fill="#B8C5CC" />
<rect x="27" y="25" width="1" height="1" fill="#B4C2C8" />
<rect x="28" y="25" width="1" height="1" fill="#ADBAC1" />
<rect x="29" y="25" width="1" height="1" fill="#B8C5CC" />
<rect x="30" y="25" width="1" height="1" fill="#B4C2C8" />
<rect x="31" y="25" width="1" height="1" fill="#ADBAC1" />
<rect x="0" y="26" width="1" height="1" fill="#ADBAC1" />
<rect x="1" y="26" width="1" height="1" fill="#B8C5CC" />
<rect x="2" y="26" width="1" height="1" fill="#B4C2C8" />
<rect x="3" y="26" width="1" height="1" fill="#ADBAC1" />
<rect x="4" y="26" width="1" height="1" fill="#B8C5CC" />
<rect x="5" y="26" width="1" height="1" fill="#B4C2C8" />
<rect x="6" y="26" width="1" height="1" fill="#ADBAC1" />
<rect x="7" y="26" width="1" height="1" fill="#B8C5CC" />
<rect x="8" y="26" width="1" height="1" fill="#B4C2C8" />
<rect x="9" y="26" width="1" height="1" fill="#ADBAC1" />
<rect x="10" y="26" width="1" height="1" fill="#B8C5CC" />
<rect x="11" y="26" width="1" height="1" fill="#B4C2C8" />
<rect x="15" y="26" width="1" height="3" fill="#E5E4E4" />
<rect x="17" y="26" width="1" height="3" fill="#FFFFFF" />
<rect x="19" y="26" width="1" height="3" fill="#FFFFFF" />
<rect x="23" y="26" width="1" height="1" fill="#B4C2C8" />
<rect x="24" y="26" width="1" height="1" fill="#ADBAC1" />
<rect x="25" y="26" width="1" height="1" fill="#B8C5CC" />
<rect x="26" y="26" width="1" height="1" fill="#B4C2C8" />
<rect x="27" y="26" width="1" height="1" fill="#ADBAC1" />
<rect x="28" y="26" width="1" height="1" fill="#B8C5CC" />
<rect x="29" y="26" width="1" height="1" fill="#B4C2C8" />
<rect x="30" y="26" width="1" height="1" fill="#ADBAC1" />
<rect x="31" y="26" width="1" height="1" fill="#B8C5CC" />
<rect x="0" y="27" width="1" height="1" fill="#B8C5CC" />
<rect x="1" y="27" width="1" height="1" fill="#B4C2C8" />
<rect x="2" y="27" width="1" height="1" fill="#A8B4BC" />
<rect x="3" y="27" width="1" height="1" fill="#B8C5CC" />
<rect x="4" y="27" width="1" height="1" fill="#B4C2C8" />
<rect x="5" y="27" width="1" height="1" fill="#A8B4BC" />
<rect x="6" y="27" width="1" height="1" fill="#B8C5CC" />
<rect x="7" y="27" width="1" height="1" fill="#B4C2C8" />
<rect x="8" y="27" width="1" height="1" fill="#A8B4BC" />
<rect x="9" y="27" width="1" height="1" fill="#B8C5CC" />
<rect x="10" y="27" width="1" height="1" fill="#B4C2C8" />
<rect x="11" y="27" width="1" height="1" fill="#ADBAC1" />
<rect x="23" y="27" width="1" height="1" fill="#A8B4BC" />
<rect x="24" y="27" width="1" height="1" fill="#B8C5CC" />
<rect x="25" y="27" width="1" height="1" fill="#B4C2C8" />
<rect x="26" y="27" width="1" height="1" fill="#A8B4BC" />
<rect x="27" y="27" width="1" height="1" fill="#B8C5CC" />
<rect x="28" y="27" width="1" height="1" fill="#B4C2C8" />
<rect x="29" y="27" width="1" height="1" fill="#A8B4BC" />
<rect x="30" y="27" width="1" height="1" fill="#B8C5CC" />
<rect x="31" y="27" width="1" height="1" fill="#B4C2C8" />
<rect x="0" y="28" width="1" height="1" fill="#B4C2C8" />
<rect x="1" y="28" width="1" height="1" fill="#A8B4BC" />
<rect x="2" y="28" width="1" height="1" fill="#B8C5CC" />
<rect x="3" y="28" width="1" height="1" fill="#B4C2C8" />
<rect x="4" y="28" width="1" height="1" fill="#A8B4BC" />
<rect x="5" y="28" width="1" height="1" fill="#B8C5CC" />
<rect x="6" y="28" width="1" height="1" fill="#B4C2C8" />
<rect x="7" y="28" width="1" height="1" fill="#A8B4BC" />
<rect x="8" y="28" width="1" height="1" fill="#B8C5CC" />
<rect x="9" y="28" width="1" height="1" fill="#B4C2C8" />
<rect x="10" y="28" width="1" height="1" fill="#A8B4BC" />
<rect x="11" y="28" width="1" height="1" fill="#B8C5CC" />
<rect x="12" y="28" width="1" height="1" fill="#B4C2C8" />
<rect x="20" y="28" width="1" height="1" fill="#FFFFFF" />
<rect x="21" y="28" width="1" height="1" fill="#F2F1F1" />
<rect x="22" y="28" width="1" height="1" fill="#A8B4BC" />
<rect x="23" y="28" width="1" height="1" fill="#B8C5CC" />
<rect x="24" y="28" width="1" height="1" fill="#B4C2C8" />
<rect x="25" y="28" width="1" height="1" fill="#A8B4BC" />
<rect x="26" y="28" width="1" height="1" fill="#B8C5CC" />
<rect x="27" y="28" width="1" height="1" fill="#B4C2C8" />
<rect x="28" y="28" width="1" height="1" fill="#A8B4BC" />
<rect x="29" y="28" width="1" height="1" fill="#B8C5CC" />
<rect x="30" y="28" width="1" height="1" fill="#B4C2C8" />
<rect x="31" y="28" width="1" height="1" fill="#A8B4BC" />
<rect x="0" y="29" width="1" height="1" fill="#A8B4BC" />
<rect x="1" y="29" width="1" height="1" fill="#B8C5CC" />
<rect x="2" y="29" width="1" height="1" fill="#B4C2C8" />
<rect x="3" y="29" width="1" height="1" fill="#A8B4BC" />
<rect x="4" y="29" width="1" height="1" fill="#B8C5CC" />
<rect x="5" y="29" width="1" height="1" fill="#B4C2C8" />
<rect x="6" y="29" width="1" height="1" fill="#A8B4BC" />
<rect x="7" y="29" width="1" height="1" fill="#B8C5CC" />
<rect x="8" y="29" width="1" height="1" fill="#B4C2C8" />
<rect x="9" y="29" width="1" height="1" fill="#A8B4BC" />
<rect x="10" y="29" width="1" height="1" fill="#B8C5CC" />
<rect x="11" y="29" width="1" height="1" fill="#B4C2C8" />
<rect x="12" y="29" width="1" height="1" fill="#A8B4BC" />
<rect x="13" y="29" width="1" height="1" fill="#B8C5CC" />
<rect x="14" y="29" width="1" height="1" fill="#CBC9C9" />
<rect x="15" y="29" width="1" height="1" fill="#D8D6D6" />
<rect x="17" y="29" width="4" height="1" fill="#F2F1F1" />
<rect x="21" y="29" width="1" height="1" fill="#A8B4BC" />
<rect x="22" y="29" width="1" height="1" fill="#B8C5CC" />
<rect x="23" y="29" width="1" height="1" fill="#B4C2C8" />
<rect x="24" y="29" width="1" height="1" fill="#A8B4BC" />
<rect x="25" y="29" width="1" height="1" fill="#B8C5CC" />
<rect x="26" y="29" width="1" height="1" fill="#B4C2C8" />
<rect x="27" y="29" width="1" height="1" fill="#A8B4BC" />
<rect x="28" y="29" width="1" height="1" fill="#B8C5CC" />
<rect x="29" y="29" width="1" height="1" fill="#B4C2C8" />
<rect x="30" y="29" width="1" height="1" fill="#A8B4BC" />
<rect x="31" y="29" width="1" height="1" fill="#B4C2C8" />
<rect x="0" y="30" width="32" height="1" fill="#FFFFFF" />
<rect x="0" y="31" width="32" height="1" fill="#9BADB7" />
</svg>