<?xml version="1.0" encoding="UTF-8" ?>
<svg version="1.1" width="32" height="32" xmlns="http://www.w3.org/2000/svg" shape-rendering="crispEdges">
<rect x="0" y="0" width="22" height="2" fill="#5FCDE4" />
<rect x="22" y="0" width="10" height="1" fill="#FFFFFF" />
<rect x="22" y="1" width="2" height="1" fill="#FFFFFF" />
<rect x="24" y="1" width="1" height="1" fill="#AC3232" />
<rect x="25" y="1" width="1" height="2" fill="#FFFFFF" />
<rect x="26" y="1" width="3" height="1" fill="#000000" />
<rect x="29" y="1" width="1" height="2" fill="#FFFFFF" />
<rect x="30" y="1" width="1" height="1" fill="#000000" />
<rect x="31" y="1" width="1" height="2" fill="#FFFFFF" />
<rect x="0" y="2" width="23" height="1" fill="#63CDE4" />
<rect x="23" y="2" width="2" height="1" fill="#FFFFFF" />
<rect x="26" y="2" width="3" height="1" fill="#FFFFFF" />
<rect x="30" y="2" width="1" height="1" fill="#FFFFFF" />
<rect x="0" y="3" width="1" height="1" fill="#5FCDE4" />
<rect x="1" y="3" width="1" height="1" fill="#67CEE5" />
<rect x="2" y="3" width="1" height="1" fill="#5FCDE4" />
<rect x="3" y="3" width="1" height="1" fill="#67CEE5" />
<rect x="4" y="3" width="1" height="1" fill="#5FCDE4" />
<rect x="5" y="3" width="1" height="1" fill="#67CEE5" />
<rect x="6" y="3" width="1" height="1" fill="#5FCDE4" />
<rect x="7" y="3" width="1" height="1" fill="#67CEE5" />
<rect x="8" y="3" width="1" height="1" fill="#5FCDE4" />
<rect x="9" y="3" width="1" height="1" fill="#67CEE5" />
<rect x="10" y="3" width="1" height="1" fill="#5FCDE4" />
<rect x="11" y="3" width="1" height="1" fill="#67CEE5" />
<rect x="12" y="3" width="1" height="1" fill="#5FCDE4" />
<rect x="13" y="3" width="1" height="1" fill="#67CEE5" />
<rect x="14" y="3" width="1" height="1" fill="#5FCDE4" />
<rect x="15" y="3" width="1" height="1" fill="#67CEE5" />
<rect x="16" y="3" width="1" height="1" fill="#5FCDE4" />
<rect x="17" y="3" width="1" height="1" fill="#67CEE5" />
<rect x="18" y="3" width="1" height="1" fill="#5FCDE4" />
<rect x="19" y="3" width="1" height="1" fill="#67CEE5" />
<rect x="20" y="3" width="1" height="1" fill="#5FCDE4" />
<rect x="21" y="3" width="1" height="1" fill="#67CEE5" />
<rect x="22" y="3" width="1" height="1" fill="#5FCDE4" />
<rect x="23" y="3" width="1" height="1" fill="#67CEE5" />
<rect x="24" y="3" width="1" height="1" fill="#5FCDE4" />
<rect x="25" y="3" width="1" height="1" fill="#67CEE5" />
<rect x="26" y="3" width="1" height="1" fill="#5FCDE4" />
<rect x="27" y="3" width="1" height="1" fill="#67CEE5" />
<rect x="28" y="3" width="1" height="1" fill="#5FCDE4" />
<rect x="29" y="3" width="1" height="1" fill="#67CEE5" />
<rect x="30" y="3" width="1" height="1" fill="#5FCDE4" />
<rect x="31" y="3" width="1" height="1" fill="#67CEE5" />
<rect x="0" y="4" width="1" height="1" fill="#6BCEE6" />
<rect x="1" y="4" width="1" height="1" fill="#5FCDE4" />
<rect x="2" y="4" width="1" height="1" fill="#6BCEE6" />
<rect x="3" y="4" width="1" height="1" fill="#5FCDE4" />
<rect x="4" y="4" width="1" height="1" fill="#6BCEE6" />
<rect x="5" y="4" width="1" height="1" fill="#5FCDE4" />
<rect x="6" y="4" width="1" height="1" fill="#6BCEE6" />
<rect x="7" y="4" width="1" height="1" fill="#5FCDE4" />
<rect x="8" y="4" width="1" height="1" fill="#6BCEE6" />
<rect x="9" y="4" width="1" height="1" fill="#5FCDE4" />
<rect x="10" y="4" width="1" height="1" fill="#6BCEE6" />
<rect x="11" y="4" width="1" height="1" fill="#5FCDE4" />
<rect x="12" y="4" width="1" height="1" fill="#6BCEE6" />
<rect x="13" y="4" width="1" height="1" fill="#5FCDE4" />
<rect x="14" y="4" width="1" height="1" fill="#6BCEE6" />
<rect x="15" y="4" width="1" height="1" fill="#F46565" />
<rect x="16" y="4" width="1" height="1" fill="#6BCEE6" />
<rect x="17" y="4" width="1" height="1" fill="#5FCDE4" />
<rect x="18" y="4" width="1" height="1" fill="#6BCEE6" />
<rect x="19" y="4" width="1" height="1" fill="#5FCDE4" />
<rect x="20" y="4" width="1" height="1" fill="#6BCEE6" />
<rect x="21" y="4" width="1" height="1" fill="#5FCDE4" />
<rect x="22" y="4" width="1" height="1" fill="#6BCEE6" />
<rect x="23" y="4" width="1" height="1" fill="#5FCDE4" />
<rect x="24" y="4" width="1" height="1" fill="#6BCEE6" />
<rect x="25" y="4" width="1" height="1" fill="#5FCDE4" />
<rect x="26" y="4" width="1" height="1" fill="#6BCEE6" />
<rect x="27" y="4" width="1" height="1" fill="#5FCDE4" />
<rect x="28" y="4" width="1" height="1" fill="#6BCEE6" />
<rect x="29" y="4" width="1" height="1" fill="#5FCDE4" />
<rect x="30" y="4" width="1" height="1" fill="#6BCEE6" />
<rect x="31" y="4" width="1" height="1" fill="#5FCDE4" />
<rect x="0" y="5" width="1" height="1" fill="#5FCDE4" />
<rect x="1" y="5" width="1" height="1" fill="#6FCFE7" />
<rect x="2" y="5" width="1" height="1" fill="#5FCDE4" />
<rect x="3" y="5" width="1" height="1" fill="#6FCFE7" />
<rect x="4" y="5" width="1" height="1" fill="#5FCDE4" />
<rect x="5" y="5" width="1" height="1" fill="#6FCFE7" />
<rect x="6" y="5" width="1" height="1" fill="#5FCDE4" />
<rect x="7" y="5" width="1" height="1" fill="#6FCFE7" />
<rect x="8" y="5" width="1" height="1" fill="#5FCDE4" />
<rect x="9" y="5" width="1" height="1" fill="#6FCFE7" />
<rect x="10" y="5" width="1" height="1" fill="#5FCDE4" />
<rect x="11" y="5" width="1" height="1" fill="#6FCFE7" />
<rect x="12" y="5" width="1" height="1" fill="#5FCDE4" />
<rect x="13" y="5" width="5" height="1" fill="#DC5454" />
<rect x="18" y="5" width="1" height="1" fill="#5FCDE4" />
<rect x="19" y="5" width="1" height="1" fill="#6FCFE7" />
<rect x="20" y="5" width="1" height="1" fill="#5FCDE4" />
<rect x="21" y="5" width="1" height="1" fill="#6FCFE7" />
<rect x="22" y="5" width="1" height="1" fill="#5FCDE4" />
<rect x="23" y="5" width="1" height="1" fill="#6FCFE7" />
<rect x="24" y="5" width="1" height="1" fill="#5FCDE4" />
<rect x="25" y="5" width="1" height="1" fill="#6FCFE7" />
<rect x="26" y="5" width="1" height="1" fill="#5FCDE4" />
<rect x="27" y="5" width="1" height="1" fill="#6FCFE7" />
<rect x="28" y="5" width="1" height="1" fill="#5FCDE4" />
<rect x="29" y="5" width="1" height="1" fill="#6FCFE7" />
<rect x="30" y="5" width="1" height="1" fill="#5FCDE4" />
<rect x="31" y="5" width="1" height="1" fill="#6FCFE7" />
<rect x="0" y="6" width="1" height="1" fill="#73CFE8" />
<rect x="1" y="6" width="1" height="1" fill="#5FCDE4" />
<rect x="2" y="6" width="1" height="1" fill="#73CFE8" />
<rect x="3" y="6" width="1" height="1" fill="#5FCDE4" />
<rect x="4" y="6" width="1" height="1" fill="#73CFE8" />
<rect x="5" y="6" width="1" height="1" fill="#5FCDE4" />
<rect x="6" y="6" width="1" height="1" fill="#73CFE8" />
<rect x="7" y="6" width="1" height="1" fill="#5FCDE4" />
<rect x="8" y="6" width="1" height="1" fill="#73CFE8" />
<rect x="9" y="6" width="1" height="1" fill="#5FCDE4" />
<rect x="10" y="6" width="1" height="1" fill="#73CFE8" />
<rect x="11" y="6" width="1" height="1" fill="#5FCDE4" />
<rect x="12" y="6" width="2" height="1" fill="#C44343" />
<rect x="14" y="6" width="3" height="1" fill="#FFFFFF" />
<rect x="17" y="6" width="2" height="1" fill="#C44343" />
<rect x="19" y="6" width="1" height="1" fill="#5FCDE4" />
<rect x="20" y="6" width="1" height="1" fill="#73CFE8" />
<rect x="21" y="6" width="1" height="1" fill="#5FCDE4" />
<rect x="22" y="6" width="1" height="1" fill="#73CFE8" />
<rect x="23" y="6" width="1" height="1" fill="#5FCDE4" />
<rect x="24" y="6" width="1" height="1" fill="#73CFE8" />
<rect x="25" y="6" width="1" height="1" fill="#5FCDE4" />
<rect x="26" y="6" width="1" height="1" fill="#73CFE8" />
<rect x="27" y="6" width="1" height="1" fill="#5FCDE4" />
<rect x="28" y="6" width="1" height="1" fill="#73CFE8" />
<rect x="29" y="6" width="1" height="1" fill="#5FCDE4" />
<rect x="30" y="6" width="1" height="1" fill="#73CFE8" />
<rect x="31" y="6" width="1" height="1" fill="#5FCDE4" />
<rect x="0" y="7" width="1" height="1" fill="#5FCDE4" />
<rect x="1" y="7" width="1" height="1" fill="#77D0E9" />
<rect x="2" y="7" width="1" height="1" fill="#5FCDE4" />
<rect x="3" y="7" width="1" height="1" fill="#77D0E9" />
<rect x="4" y="7" width="1" height="1" fill="#5FCDE4" />
<rect x="5" y="7" width="1" height="1" fill="#77D0E9" />
<rect x="6" y="7" width="1" height="1" fill="#5FCDE4" />
<rect x="7" y="7" width="1" height="1" fill="#77D0E9" />
<rect x="8" y="7" width="1" height="1" fill="#5FCDE4" />
<rect x="9" y="7" width="1" height="1" fill="#77D0E9" />
<rect x="10" y="7" width="1" height="1" fill="#5FCDE4" />
<rect x="11" y="7" width="9" height="1" fill="#AC3232" />
<rect x="20" y="7" width="1" height="1" fill="#5FCDE4" />
<rect x="21" y="7" width="1" height="1" fill="#77D0E9" />
<rect x="22" y="7" width="1" height="1" fill="#5FCDE4" />
<rect x="23" y="7" width="1" height="1" fill="#77D0E9" />
<rect x="24" y="7" width="1" height="1" fill="#5FCDE4" />
<rect x="25" y="7" width="1" height="1" fill="#77D0E9" />
<rect x="26" y="7" width="1" height="1" fill="#5FCDE4" />
<rect x="27" y="7" width="1" height="1" fill="#77D0E9" />
<rect x="28" y="7" width="1" height="1" fill="#5FCDE4" />
<rect x="29" y="7" width="1" height="1" fill="#77D0E9" />
<rect x="30" y="7" width="1" height="1" fill="#5FCDE4" />
<rect x="31" y="7" width="1" height="1" fill="#77D0E9" />
<rect x="0" y="8" width="1" height="1" fill="#7CD0EA" />
<rect x="1" y="8" width="1" height="1" fill="#5FCDE4" />
<rect x="2" y="8" width="1" height="1" fill="#7CD0EA" />
<rect x="3" y="8" width="1" height="1" fill="#5FCDE4" />
<rect x="4" y="8" width="1" height="1" fill="#7CD0EA" />
<rect x="5" y="8" width="1" height="1" fill="#5FCDE4" />
<rect x="6" y="8" width="1" height="1" fill="#7CD0EA" />
<rect x="7" y="8" width="1" height="1" fill="#5FCDE4" />
<rect x="8" y="8" width="1" height="1" fill="#7CD0EA" />
<rect x="9" y="8" width="1" height="1" fill="#5FCDE4" />
<rect x="10" y="8" width="1" height="1" fill="#7CD0EA" />
<rect x="11" y="8" width="2" height="1" fill="#AC3232" />
<rect x="13" y="8" width="5" height="1" fill="#6A1D1D" />
<rect x="18" y="8" width="2" height="1" fill="#AC3232" />
<rect x="20" y="8" width="1" height="1" fill="#7CD0EA" />
<rect x="21" y="8" width="1" height="1" fill="#5FCDE4" />
<rect x="22" y="8" width="1" height="1" fill="#7CD0EA" />
<rect x="23" y="8" width="1" height="1" fill="#5FCDE4" />
<rect x="24" y="8" width="1" height="1" fill="#7CD0EA" />
<rect x="25" y="8" width="1" height="1" fill="#5FCDE4" />
<rect x="26" y="8" width="1" height="1" fill="#7CD0EA" />
<rect x="27" y="8" width="1" height="1" fill="#5FCDE4" />
<rect x="28" y="8" width="1" height="1" fill="#7CD0EA" />
<rect x="29" y="8" width="1" height="1" fill="#5FCDE4" />
<rect x="30" y="8" width="1" height="1" fill="#7CD0EA" />
<rect x="31" y="8" width="1" height="1" fill="#5FCDE4" />
<rect x="0" y="9" width="1" height="1" fill="#5FCDE4" />
<rect x="1" y="9" width="1" height="1" fill="#80D1EB" />
<rect x="2" y="9" width="1" height="1" fill="#5FCDE4" />
<rect x="3" y="9" width="1" height="1" fill="#80D1EB" />
<rect x="4" y="9" width="1" height="1" fill="#5FCDE4" />
<rect x="5" y="9" width="1" height="1" fill="#80D1EB" />
<rect x="6" y="9" width="1" height="1" fill="#5FCDE4" />
<rect x="7" y="9" width="1" height="1" fill="#80D1EB" />
<rect x="8" y="9" width="1" height="1" fill="#5FCDE4" />
<rect x="9" y="9" width="1" height="1" fill="#80D1EB" />
<rect x="10" y="9" width="1" height="1" fill="#5FCDE4" />
<rect x="11" y="9" width="2" height="1" fill="#6A1D1D" />
<rect x="13" y="9" width="5" height="1" fill="#9C6B3D" />
<rect x="18" y="9" width="2" height="1" fill="#6A1D1D" />
<rect x="20" y="9" width="1" height="1" fill="#5FCDE4" />
<rect x="21" y="9" width="1" height="1" fill="#80D1EB" />
<rect x="22" y="9" width="1" height="1" fill="#5FCDE4" />
<rect x="23" y="9" width="1" height="1" fill="#80D1EB" />
<rect x="24" y="9" width="1" height="1" fill="#5FCDE4" />
<rect x="25" y="9" width="1" height="1" fill="#80D1EB" />
<rect x="26" y="9" width="1" height="1" fill="#5FCDE4" />
<rect x="27" y="9" width="1" height="1" fill="#80D1EB" />
<rect x="28" y="9" width="1" height="1" fill="#5FCDE4" />
<rect x="29" y="9" width="1" height="1" fill="#80D1EB" />
<rect x="30" y="9" width="1" height="1" fill="#5FCDE4" />
<rect x="31" y="9" width="1" height="1" fill="#80D1EB" />
<rect x="0" y="10" width="1" height="1" fill="#84D1EC" />
<rect x="1" y="10" width="1" height="1" fill="#5FCDE4" />
<rect x="2" y="10" width="1" height="1" fill="#84D1EC" />
<rect x="3" y="10" width="1" height="1" fill="#5FCDE4" />
<rect x="4" y="10" width="1" height="1" fill="#84D1EC" />
<rect x="5" y="10" width="1" height="1" fill="#5FCDE4" />
<rect x="6" y="10" width="1" height="1" fill="#84D1EC" />
<rect x="7" y="10" width="1" height="1" fill="#5FCDE4" />
<rect x="8" y="10" width="1" height="1" fill="#84D1EC" />
<rect x="9" y="10" width="1" height="1" fill="#5FCDE4" />
<rect x="10" y="10" width="1" height="1" fill="#456E7C" />
<rect x="11" y="10" width="9" height="1" fill="#BA834F" />
<rect x="20" y="10" width="1" height="1" fill="#84D1EC" />
<rect x="21" y="10" width="1" height="1" fill="#5FCDE4" />
<rect x="22" y="10" width="1" height="1" fill="#84D1EC" />
<rect x="23" y="10" width="1" height="1" fill="#5FCDE4" />
<rect x="24" y="10" width="1" height="1" fill="#84D1EC" />
<rect x="25" y="10" width="1" height="1" fill="#5FCDE4" />
<rect x="26" y="10" width="1" height="1" fill="#84D1EC" />
<rect x="27" y="10" width="1" height="1" fill="#5FCDE4" />
<rect x="28" y="10" width="1" height="1" fill="#84D1EC" />
<rect x="29" y="10" width="1" height="1" fill="#5FCDE4" />
<rect x="30" y="10" width="1" height="1" fill="#84D1EC" />
<rect x="31" y="10" width="1" height="1" fill="#5FCDE4" />
<rect x="0" y="11" width="1" height="1" fill="#5FCDE4" />
<rect x="1" y="11" width="1" height="1" fill="#88D2ED" />
<rect x="2" y="11" width="1" height="1" fill="#5FCDE4" />
<rect x="3" y="11" width="1" height="1" fill="#88D2ED" />
<rect x="4" y="11" width="1" height="1" fill="#5FCDE4" />
<rect x="5" y="11" width="1" height="1" fill="#88D2ED" />
<rect x="6" y="11" width="1" height="1" fill="#5FCDE4" />
<rect x="7" y="11" width="1" height="1" fill="#88D2ED" />
<rect x="8" y="11" width="1" height="1" fill="#5FCDE4" />
<rect x="9" y="11" width="1" height="1" fill="#88D2ED" />
<rect x="10" y="11" width="1" height="1" fill="#326B77" />
<rect x="11" y="11" width="2" height="2" fill="#D89B62" />
<rect x="13" y="11" width="1" height="1" fill="#000000" />
<rect x="14" y="11" width="3" height="3" fill="#D89B62" />
<rect x="17" y="11" width="1" height="1" fill="#000000" />
<rect x="18" y="11" width="2" height="2" fill="#D89B62" />
<rect x="20" y="11" width="1" height="1" fill="#5FCDE4" />
<rect x="21" y="11" width="1" height="1" fill="#88D2ED" />
<rect x="22" y="11" width="1" height="1" fill="#5FCDE4" />
<rect x="23" y="11" width="1" height="1" fill="#88D2ED" />
<rect x="24" y="11" width="1" height="1" fill="#5FCDE4" />
<rect x="25" y="11" width="1" height="1" fill="#88D2ED" />
<rect x="26" y="11" width="1" height="1" fill="#5FCDE4" />
<rect x="27" y="11" width="1" height="1" fill="#88D2ED" />
<rect x="28" y="11" width="1" height="1" fill="#5FCDE4" />
<rect x="29" y="11" width="1" height="1" fill="#88D2ED" />
<rect x="30" y="11" width="1" height="1" fill="#5FCDE4" />
<rect x="31" y="11" width="1" height="1" fill="#88D2ED" />
<rect x="0" y="12" width="1" height="1" fill="#8CD2EE" />
<rect x="1" y="12" width="1" height="1" fill="#5FCDE4" />
<rect x="2" y="12" width="1" height="1" fill="#8CD2EE" />
<rect x="3" y="12" width="1" height="1" fill="#5FCDE4" />
<rect x="4" y="12" width="1" height="1" fill="#8CD2EE" />
<rect x="5" y="12" width="1" height="1" fill="#5FCDE4" />
<rect x="6" y="12" width="1" height="1" fill="#8CD2EE" />
<rect x="7" y="12" width="1" height="1" fill="#5FCDE4" />
<rect x="8" y="12" width="1" height="1" fill="#8CD2EE" />
<rect x="9" y="12" width="1" height="1" fill="#5FCDE4" />
<rect x="10" y="12" width="1" height="1" fill="#4A6E7D" />
<rect x="13" y="12" width="1" height="3" fill="#D89B62" />
<rect x="17" y="12" width="1" height="3" fill="#D89B62" />
<rect x="20" y="12" width="1" height="1" fill="#8CD2EE" />
<rect x="21" y="12" width="1" height="1" fill="#5FCDE4" />
<rect x="22" y="12" width="1" height="1" fill="#8CD2EE" />
<rect x="23" y="12" width="1" height="1" fill="#5FCDE4" />
<rect x="24" y="12" width="1" height="1" fill="#8CD2EE" />
<rect x="25" y="12" width="1" height="1" fill="#5FCDE4" />
<rect x="26" y="12" width="1" height="1" fill="#8CD2EE" />
<rect x="27" y="12" width="1" height="1" fill="#5FCDE4" />
<rect x="28" y="12" width="1" height="1" fill="#8CD2EE" />
<rect x="29" y="12" width="1" height="1" fill="#5FCDE4" />
<rect x="30" y="12" width="1" height="1" fill="#8CD2EE" />
<rect x="31" y="12" width="1" height="1" fill="#5FCDE4" />
<rect x="0" y="13" width="1" height="1" fill="#5FCDE4" />
<rect x="1" y="13" width="1" height="1" fill="#90D3EF" />
<rect x="2" y="13" width="1" height="1" fill="#5FCDE4" />
<rect x="3" y="13" width="1" height="1" fill="#90D3EF" />
<rect x="4" y="13" width="1" height="1" fill="#5FCDE4" />
<rect x="5" y="13" width="1" height="1" fill="#90D3EF" />
<rect x="6" y="13" width="1" height="1" fill="#5FCDE4" />
<rect x="7" y="13" width="1" height="1" fill="#90D3EF" />
<rect x="8" y="13" width="1" height="1" fill="#5FCDE4" />
<rect x="9" y="13" width="1" height="1" fill="#90D3EF" />
<rect x="10" y="13" width="1" height="1" fill="#326B77" />
<rect x="11" y="13" width="1" height="1" fill="#9C6B3D" />
<rect x="12" y="13" width="1" height="1" fill="#D89B62" />
<rect x="18" y="13" width="1" height="1" fill="#D89B62" />
<rect x="19" y="13" width="1" height="1" fill="#9C6B3D" />
<rect x="20" y="13" width="1" height="1" fill="#5FCDE4" />
<rect x="21" y="13" width="1" height="1" fill="#90D3EF" />
<rect x="22" y="13" width="1" height="1" fill="#5FCDE4" />
<rect x="23" y="13" width="1" height="1" fill="#90D3EF" />
<rect x="24" y="13" width="1" height="1" fill="#5FCDE4" />
<rect x="25" y="13" width="1" height="1" fill="#90D3EF" />
<rect x="26" y="13" width="1" height="1" fill="#5FCDE4" />
<rect x="27" y="13" width="1" height="1" fill="#90D3EF" />
<rect x="28" y="13" width="1" height="1" fill="#5FCDE4" />
<rect x="29" y="13" width="1" height="1" fill="#90D3EF" />
<rect x="30" y="13" width="1" height="1" fill="#5FCDE4" />
<rect x="31" y="13" width="1" height="1" fill="#90D3EF" />
<rect x="0" y="14" width="1" height="1" fill="#95D4F0" />
<rect x="1" y="14" width="1" height="1" fill="#5FCDE4" />
<rect x="2" y="14" width="1" height="1" fill="#95D4F0" />
<rect x="3" y="14" width="1" height="1" fill="#5FCDE4" />
<rect x="4" y="14" width="1" height="1" fill="#95D4F0" />
<rect x="5" y="14" width="1" height="1" fill="#5FCDE4" />
<rect x="6" y="14" width="1" height="1" fill="#95D4F0" />
<rect x="7" y="14" width="1" height="1" fill="#5FCDE4" />
<rect x="8" y="14" width="1" height="1" fill="#95D4F0" />
<rect x="9" y="14" width="1" height="1" fill="#5FCDE4" />
<rect x="10" y="14" width="1" height="1" fill="#95D4F0" />
<rect x="11" y="14" width="1" height="1" fill="#326B77" />
<rect x="12" y="14" width="1" height="2" fill="#9C6B3D" />
<rect x="14" y="14" width="1" height="1" fill="#1E1E1E" />
<rect x="15" y="14" width="1" height="1" fill="#000000" />
<rect x="16" y="14" width="1" height="1" fill="#0A0A0A" />
<rect x="18" y="14" width="1" height="2" fill="#9C6B3D" />
<rect x="19" y="14" width="1" height="1" fill="#5FCDE4" />
<rect x="20" y="14" width="1" height="1" fill="#95D4F0" />
<rect x="21" y="14" width="1" height="1" fill="#5FCDE4" />
<rect x="22" y="14" width="1" height="1" fill="#95D4F0" />
<rect x="23" y="14" width="1" height="1" fill="#5FCDE4" />
<rect x="24" y="14" width="1" height="1" fill="#95D4F0" />
<rect x="25" y="14" width="1" height="1" fill="#5FCDE4" />
<rect x="26" y="14" width="1" height="1" fill="#95D4F0" />
<rect x="27" y="14" width="1" height="1" fill="#5FCDE4" />
<rect x="28" y="14" width="1" height="1" fill="#95D4F0" />
<rect x="29" y="14" width="1" height="1" fill="#5FCDE4" />
<rect x="30" y="14" width="1" height="1" fill="#95D4F0" />
<rect x="31" y="14" width="1" height="1" fill="#5FCDE4" />
<rect x="0" y="15" width="1" height="1" fill="#5FCDE4" />
<rect x="1" y="15" width="1" height="1" fill="#99D4F0" />
<rect x="2" y="15" width="1" height="1" fill="#5FCDE4" />
<rect x="3" y="15" width="1" height="1" fill="#99D4F0" />
<rect x="4" y="15" width="1" height="1" fill="#5FCDE4" />
<rect x="5" y="15" width="1" height="1" fill="#99D4F0" />
<rect x="6" y="15" width="1" height="1" fill="#5FCDE4" />
<rect x="7" y="15" width="1" height="1" fill="#99D4F0" />
<rect x="8" y="15" width="1" height="1" fill="#5FCDE4" />
<rect x="9" y="15" width="1" height="1" fill="#99D4F0" />
<rect x="10" y="15" width="1" height="1" fill="#5FCDE4" />
<rect x="11" y="15" width="1" height="1" fill="#506F7E" />
<rect x="13" y="15" width="1" height="1" fill="#292929" />
<rect x="14" y="15" width="1" height="1" fill="#000000" />
<rect x="15" y="15" width="1" height="1" fill="#141414" />
<rect x="16" y="15" width="2" height="1" fill="#000000" />
<rect x="19" y="15" width="1" height="1" fill="#99D4F0" />
<rect x="20" y="15" width="1" height="1" fill="#5FCDE4" />
<rect x="21" y="15" width="1" height="1" fill="#99D4F0" />
<rect x="22" y="15" width="1" height="1" fill="#5FCDE4" />
<rect x="23" y="15" width="1" height="1" fill="#99D4F0" />
<rect x="24" y="15" width="1" height="1" fill="#5FCDE4" />
<rect x="25" y="15" width="1" height="1" fill="#99D4F0" />
<rect x="26" y="15" width="1" height="1" fill="#5FCDE4" />
<rect x="27" y="15" width="1" height="1" fill="#99D4F0" />
<rect x="28" y="15" width="1" height="1" fill="#5FCDE4" />
<rect x="29" y="15" width="1" height="1" fill="#99D4F0" />
<rect x="30" y="15" width="1" height="1" fill="#5FCDE4" />
<rect x="31" y="15" width="1" height="1" fill="#99D4F0" />
<rect x="0" y="16" width="1" height="1" fill="#9DD5F1" />
<rect x="1" y="16" width="1" height="1" fill="#5FCDE4" />
<rect x="2" y="16" width="1" height="1" fill="#9DD5F1" />
<rect x="3" y="16" width="1" height="1" fill="#5FCDE4" />
<rect x="4" y="16" width="1" height="1" fill="#9DD5F1" />
<rect x="5" y="16" width="1" height="1" fill="#5FCDE4" />
<rect x="6" y="16" width="1" height="1" fill="#9DD5F1" />
<rect x="7" y="16" width="1" height="1" fill="#5FCDE4" />
<rect x="8" y="16" width="1" height="1" fill="#9DD5F1" />
<rect x="9" y="16" width="1" height="1" fill="#5FCDE4" />
<rect x="10" y="16" width="1" height="1" fill="#9DD5F1" />
<rect x="11" y="16" width="1" height="1" fill="#5FCDE4" />
<rect x="12" y="16" width="1" height="1" fill="#52707E" />
<rect x="13" y="16" width="1" height="1" fill="#000000" />
<rect x="14" y="16" width="1" height="1" fill="#1E1E1E" />
<rect x="15" y="16" width="1" height="1" fill="#000000" />
<rect x="16" y="16" width="1" height="1" fill="#0A0A0A" />
<rect x="17" y="16" width="1" height="2" fill="#000000" />
<rect x="18" y="16" width="1" height="1" fill="#9DD5F1" />
<rect x="19" y="16" width="1" height="1" fill="#5FCDE4" />
<rect x="20" y="16" width="1" height="1" fill="#9DD5F1" />
<rect x="21" y="16" width="1" height="1" fill="#5FCDE4" />
<rect x="22" y="16" width="1" height="1" fill="#9DD5F1" />
<rect x="23" y="16" width="1" height="1" fill="#5FCDE4" />
<rect x="24" y="16" width="1" height="1" fill="#9DD5F1" />
<rect x="25" y="16" width="1" height="1" fill="#5FCDE4" />
<rect x="26" y="16" width="1" height="1" fill="#9DD5F1" />
<rect x="27" y="16" width="1" height="1" fill="#5FCDE4" />
<rect x="28" y="16" width="1" height="1" fill="#9DD5F1" />
<rect x="29" y="16" width="1" height="1" fill="#5FCDE4" />
<rect x="30" y="16" width="1" height="1" fill="#9DD5F1" />
<rect x="31" y="16" width="1" height="1" fill="#5FCDE4" />
<rect x="0" y="17" width="1" height="1" fill="#5FCDE4" />
<rect x="1" y="17" width="1" height="1" fill="#A1D5F2" />
<rect x="2" y="17" width="1" height="1" fill="#5FCDE4" />
<rect x="3" y="17" width="1" height="1" fill="#A1D5F2" />
<rect x="4" y="17" width="1" height="1" fill="#5FCDE4" />
<rect x="5" y="17" width="1" height="1" fill="#A1D5F2" />
<rect x="6" y="17" width="1" height="1" fill="#5FCDE4" />
<rect x="7" y="17" width="1" height="1" fill="#A1D5F2" />
<rect x="8" y="17" width="1" height="1" fill="#326B77" />
<rect x="9" y="17" width="1" height="1" fill="#54707F" />
<rect x="10" y="17" width="1" height="1" fill="#326B77" />
<rect x="11" y="17" width="2" height="2" fill="#FBF236" />
<rect x="13" y="17" width="1" height="1" fill="#292929" />
<rect x="14" y="17" width="1" height="1" fill="#000000" />
<rect x="15" y="17" width="1" height="1" fill="#141414" />
<rect x="16" y="17" width="1" height="1" fill="#000000" />
<rect x="18" y="17" width="1" height="3" fill="#FBF236" />
<rect x="19" y="17" width="1" height="1" fill="#A1D5F2" />
<rect x="20" y="17" width="1" height="1" fill="#5FCDE4" />
<rect x="21" y="17" width="1" height="1" fill="#A1D5F2" />
<rect x="22" y="17" width="1" height="1" fill="#5FCDE4" />
<rect x="23" y="17" width="1" height="1" fill="#A1D5F2" />
<rect x="24" y="17" width="1" height="1" fill="#5FCDE4" />
<rect x="25" y="17" width="1" height="1" fill="#A1D5F2" />
<rect x="26" y="17" width="1" height="1" fill="#5FCDE4" />
<rect x="27" y="17" width="1" height="1" fill="#A1D5F2" />
<rect x="28" y="17" width="1" height="1" fill="#5FCDE4" />
<rect x="29" y="17" width="1" height="1" fill="#A1D5F2" />
<rect x="30" y="17" width="1" height="1" fill="#5FCDE4" />
<rect x="31" y="17" width="1" height="1" fill="#A1D5F2" />
<rect x="0" y="18" width="1" height="1" fill="#A5D6F3" />
<rect x="1" y="18" width="1" height="1" fill="#5FCDE4" />
<rect x="2" y="18" width="1" height="1" fill="#A5D6F3" />
<rect x="3" y="18" width="1" height="1" fill="#5FCDE4" />
<rect x="4" y="18" width="1" height="1" fill="#A5D6F3" />
<rect x="5" y="18" width="1" height="1" fill="#5FCDE4" />
<rect x="6" y="18" width="1" height="1" fill="#A5D6F3" />
<rect x="7" y="18" width="1" height="1" fill="#326B77" />
<rect x="8" y="18" width="3" height="1" fill="#FBF236" />
<rect x="13" y="18" width="1" height="1" fill="#A4A4A4" />
<rect x="14" y="18" width="1" height="1" fill="#1E1E1E" />
<rect x="15" y="18" width="1" height="1" fill="#000000" />
<rect x="16" y="18" width="1" height="1" fill="#0A0A0A" />
<rect x="17" y="18" width="1" height="1" fill="#A4A4A4" />
<rect x="19" y="18" width="3" height="2" fill="#FBF236" />
<rect x="22" y="18" width="1" height="1" fill="#A5D6F3" />
<rect x="23" y="18" width="1" height="1" fill="#5FCDE4" />
<rect x="24" y="18" width="1" height="1" fill="#A5D6F3" />
<rect x="25" y="18" width="1" height="1" fill="#5FCDE4" />
<rect x="26" y="18" width="1" height="1" fill="#A5D6F3" />
<rect x="27" y="18" width="1" height="1" fill="#5FCDE4" />
<rect x="28" y="18" width="1" height="1" fill="#A5D6F3" />
<rect x="29" y="18" width="1" height="1" fill="#5FCDE4" />
<rect x="30" y="18" width="1" height="1" fill="#A5D6F3" />
<rect x="31" y="18" width="1" height="1" fill="#5FCDE4" />
<rect x="0" y="19" width="1" height="1" fill="#5FCDE4" />
<rect x="1" y="19" width="1" height="1" fill="#A9D6F4" />
<rect x="2" y="19" width="1" height="1" fill="#5FCDE4" />
<rect x="3" y="19" width="1" height="1" fill="#A9D6F4" />
<rect x="4" y="19" width="1" height="1" fill="#5FCDE4" />
<rect x="5" y="19" width="1" height="1" fill="#A9D6F4" />
<rect x="6" y="19" width="1" height="1" fill="#326B77" />
<rect x="7" y="19" width="1" height="1" fill="#F4EC34" />
<rect x="8" y="19" width="1" height="1" fill="#F5EC34" />
<rect x="9" y="19" width="1" height="1" fill="#F5ED34" />
<rect x="10" y="19" width="1" height="1" fill="#F6ED34" />
<rect x="11" y="19" width="1" height="1" fill="#F7EE34" />
<rect x="12" y="19" width="1" height="1" fill="#F7EE35" />
<rect x="13" y="19" width="1" height="4" fill="#292929" />
<rect x="14" y="19" width="3" height="1" fill="#A4A4A4" />
<rect x="17" y="19" width="1" height="5" fill="#000000" />
<rect x="22" y="19" width="1" height="1" fill="#FBF236" />
<rect x="23" y="19" width="1" height="1" fill="#A9D6F4" />
<rect x="24" y="19" width="1" height="1" fill="#5FCDE4" />
<rect x="25" y="19" width="1" height="1" fill="#A9D6F4" />
<rect x="26" y="19" width="1" height="1" fill="#5FCDE4" />
<rect x="27" y="19" width="1" height="1" fill="#A9D6F4" />
<rect x="28" y="19" width="1" height="1" fill="#5FCDE4" />
<rect x="29" y="19" width="1" height="1" fill="#A9D6F4" />
<rect x="30" y="19" width="1" height="1" fill="#5FCDE4" />
<rect x="31" y="19" width="1" height="1" fill="#A9D6F4" />
<rect x="0" y="20" width="1" height="1" fill="#ADD7F5" />
<rect x="1" y="20" width="1" height="1" fill="#5FCDE4" />
<rect x="2" y="20" width="1" height="1" fill="#ADD7F5" />
<rect x="3" y="20" width="1" height="1" fill="#5FCDE4" />
<rect x="4" y="20" width="1" height="1" fill="#ADD7F5" />
<rect x="5" y="20" width="1" height="1" fill="#326B77" />
<rect x="6" y="20" width="1" height="1" fill="#EEE632" />
<rect x="7" y="20" width="1" height="1" fill="#EFE632" />
<rect x="8" y="20" width="1" height="1" fill="#EFE732" />
<rect x="9" y="20" width="1" height="1" fill="#F0E732" />
<rect x="10" y="20" width="1" height="1" fill="#F0E833" />
<rect x="11" y="20" width="1" height="1" fill="#F1E833" />
<rect x="12" y="20" width="1" height="1" fill="#F1E933" />
<rect x="14" y="20" width="1" height="4" fill="#1E1E1E" />
<rect x="15" y="20" width="1" height="4" fill="#141414" />
<rect x="16" y="20" width="1" height="4" fill="#0A0A0A" />
<rect x="18" y="20" width="1" height="1" fill="#F5EC34" />
<rect x="19" y="20" width="1" height="1" fill="#F5ED34" />
<rect x="20" y="20" width="1" height="1" fill="#F6ED34" />
<rect x="21" y="20" width="1" height="1" fill="#F7EE34" />
<rect x="22" y="20" width="1" height="1" fill="#F7EE35" />
<rect x="23" y="20" width="1" height="1" fill="#F8EF35" />
<rect x="24" y="20" width="1" height="1" fill="#ADD7F5" />
<rect x="25" y="20" width="1" height="1" fill="#5FCDE4" />
<rect x="26" y="20" width="1" height="1" fill="#ADD7F5" />
<rect x="27" y="20" width="1" height="1" fill="#5FCDE4" />
<rect x="28" y="20" width="1" height="1" fill="#ADD7F5" />
<rect x="29" y="20" width="1" height="1" fill="#5FCDE4" />
<rect x="30" y="20" width="1" height="1" fill="#ADD7F5" />
<rect x="31" y="20" width="1" height="1" fill="#5FCDE4" />
<rect x="0" y="21" width="1" height="1" fill="#5FCDE4" />
<rect x="1" y="21" width="1" height="1" fill="#B2D7F6" />
<rect x="2" y="21" width="1" height="1" fill="#5FCDE4" />
<rect x="3" y="21" width="1" height="1" fill="#B2D7F6" />
<rect x="4" y="21" width="1" height="1" fill="#326B77" />
<rect x="5" y="21" width="2" height="1" fill="#E8E030" />
<rect x="7" y="21" width="1" height="1" fill="#E9E131" />
<rect x="8" y="21" width="1" height="1" fill="#EAE131" />
<rect x="9" y="21" width="1" height="1" fill="#EAE231" />
<rect x="10" y="21" width="1" height="1" fill="#EBE231" />
<rect x="11" y="21" width="2" height="1" fill="#000000" />
<rect x="18" y="21" width="1" height="1" fill="#EFE732" />
<rect x="19" y="21" width="1" height="1" fill="#F0E732" />
<rect x="20" y="21" width="1" height="1" fill="#F0E833" />
<rect x="21" y="21" width="1" height="1" fill="#F1E833" />
<rect x="22" y="21" width="1" height="1" fill="#F1E933" />
<rect x="23" y="21" width="1" height="1" fill="#F2E933" />
<rect x="24" y="21" width="1" height="1" fill="#F3EA33" />
<rect x="25" y="21" width="1" height="1" fill="#B2D7F6" />
<rect x="26" y="21" width="1" height="1" fill="#5FCDE4" />
<rect x="27" y="21" width="1" height="1" fill="#B2D7F6" />
<rect x="28" y="21" width="1" height="1" fill="#5FCDE4" />
<rect x="29" y="21" width="1" height="1" fill="#B2D7F6" />
<rect x="30" y="21" width="1" height="1" fill="#5FCDE4" />
<rect x="31" y="21" width="1" height="1" fill="#B2D7F6" />
<rect x="0" y="22" width="1" height="1" fill="#B6D8F7" />
<rect x="1" y="22" width="1" height="1" fill="#5FCDE4" />
<rect x="2" y="22" width="1" height="1" fill="#B6D8F7" />
<rect x="3" y="22" width="1" height="1" fill="#326B77" />
<rect x="4" y="22" width="2" height="1" fill="#E2DA2F" />
<rect x="6" y="22" width="1" height="1" fill="#E3DB2F" />
<rect x="7" y="22" width="4" height="1" fill="#000000" />
<rect x="11" y="22" width="1" height="1" fill="#E6DD30" />
<rect x="12" y="22" width="1" height="1" fill="#E6DE30" />
<rect x="18" y="22" width="1" height="1" fill="#EAE131" />
<rect x="19" y="22" width="1" height="1" fill="#EAE231" />
<rect x="20" y="22" width="1" height="1" fill="#EBE231" />
<rect x="21" y="22" width="1" height="1" fill="#EBE331" />
<rect x="22" y="22" width="1" height="1" fill="#ECE331" />
<rect x="23" y="22" width="1" height="1" fill="#ECE432" />
<rect x="24" y="22" width="1" height="1" fill="#EDE432" />
<rect x="25" y="22" width="1" height="1" fill="#EEE532" />
<rect x="26" y="22" width="1" height="1" fill="#B6D8F7" />
<rect x="27" y="22" width="1" height="1" fill="#5FCDE4" />
<rect x="28" y="22" width="1" height="1" fill="#B6D8F7" />
<rect x="29" y="22" width="1" height="1" fill="#5FCDE4" />
<rect x="30" y="22" width="1" height="1" fill="#B6D8F7" />
<rect x="31" y="22" width="1" height="1" fill="#5FCDE4" />
<rect x="0" y="23" width="1" height="1" fill="#5FCDE4" />
<rect x="1" y="23" width="1" height="1" fill="#BAD8F8" />
<rect x="2" y="23" width="1" height="1" fill="#5FCDE4" />
<rect x="3" y="23" width="4" height="1" fill="#000000" />
<rect x="7" y="23" width="1" height="1" fill="#DED62D" />
<rect x="8" y="23" width="1" height="1" fill="#DED62E" />
<rect x="9" y="23" width="1" height="1" fill="#DFD72E" />
<rect x="10" y="23" width="4" height="1" fill="#000000" />
<rect x="18" y="23" width="2" height="1" fill="#E4DC2F" />
<rect x="20" y="23" width="1" height="1" fill="#E5DD2F" />
<rect x="21" y="23" width="1" height="1" fill="#E6DD30" />
<rect x="22" y="23" width="1" height="1" fill="#E6DE30" />
<rect x="23" y="23" width="1" height="1" fill="#E7DE30" />
<rect x="24" y="23" width="1" height="1" fill="#E7DF30" />
<rect x="25" y="23" width="1" height="1" fill="#E8E030" />
<rect x="26" y="23" width="1" height="1" fill="#5FCDE4" />
<rect x="27" y="23" width="1" height="1" fill="#BAD8F8" />
<rect x="28" y="23" width="1" height="1" fill="#5FCDE4" />
<rect x="29" y="23" width="1" height="1" fill="#BAD8F8" />
<rect x="30" y="23" width="1" height="1" fill="#5FCDE4" />
<rect x="31" y="23" width="1" height="1" fill="#BAD8F8" />
<rect x="0" y="24" width="1" height="1" fill="#BED9F9" />
<rect x="1" y="24" width="2" height="2" fill="#000000" />
<rect x="3" y="24" width="1" height="1" fill="#647282" />
<rect x="4" y="24" width="1" height="1" fill="#D6CF2B" />
<rect x="5" y="24" width="1" height="1" fill="#D7CF2C" />
<rect x="6" y="24" width="4" height="1" fill="#000000" />
<rect x="10" y="24" width="2" height="1" fill="#DAD22C" />
<rect x="12" y="24" width="1" height="1" fill="#DBD32D" />
<rect x="13" y="24" width="1" height="1" fill="#DBD42D" />
<rect x="14" y="24" width="3" height="1" fill="#000000" />
<rect x="17" y="24" width="1" height="1" fill="#DED62D" />
<rect x="18" y="24" width="1" height="1" fill="#DED62E" />
<rect x="19" y="24" width="2" height="1" fill="#DFD72E" />
<rect x="21" y="24" width="1" height="1" fill="#E0D82E" />
<rect x="22" y="24" width="1" height="1" fill="#E1D82E" />
<rect x="23" y="24" width="1" height="1" fill="#E1D92E" />
<rect x="24" y="24" width="2" height="1" fill="#E2DA2F" />
<rect x="26" y="24" width="1" height="1" fill="#BED9F9" />
<rect x="27" y="24" width="1" height="1" fill="#5FCDE4" />
<rect x="28" y="24" width="1" height="1" fill="#BED9F9" />
<rect x="29" y="24" width="1" height="1" fill="#5FCDE4" />
<rect x="30" y="24" width="1" height="1" fill="#BED9F9" />
<rect x="31" y="24" width="1" height="1" fill="#5FCDE4" />
<rect x="0" y="25" width="1" height="1" fill="#5FCDE4" />
<rect x="3" y="25" width="3" height="1" fill="#000000" />
<rect x="6" y="25" width="1" height="1" fill="#D2CA2A" />
<rect x="7" y="25" width="1" height="1" fill="#D2CB2A" />
<rect x="8" y="25" width="1" height="1" fill="#D3CB2A" />
<rect x="9" y="25" width="2" height="1" fill="#D4CC2B" />
<rect x="11" y="25" width="1" height="1" fill="#D5CD2B" />
<rect x="12" y="25" width="1" height="1" fill="#D5CE2B" />
<rect x="13" y="25" width="1" height="1" fill="#D6CE2B" />
<rect x="14" y="25" width="1" height="1" fill="#D6CF2B" />
<rect x="15" y="25" width="1" height="1" fill="#D7CF2C" />
<rect x="16" y="25" width="2" height="1" fill="#D8D02C" />
<rect x="18" y="25" width="2" height="1" fill="#D9D12C" />
<rect x="20" y="25" width="2" height="1" fill="#DAD22C" />
<rect x="22" y="25" width="1" height="1" fill="#DBD32D" />
<rect x="23" y="25" width="1" height="1" fill="#DBD42D" />
<rect x="24" y="25" width="1" height="1" fill="#DCD42D" />
<rect x="25" y="25" width="1" height="1" fill="#DDD52D" />
<rect x="26" y="25" width="1" height="1" fill="#5FCDE4" />
<rect x="27" y="25" width="1" height="1" fill="#C2D9FA" />
<rect x="28" y="25" width="1" height="1" fill="#5FCDE4" />
<rect x="29" y="25" width="1" height="1" fill="#C2D9FA" />
<rect x="30" y="25" width="1" height="1" fill="#5FCDE4" />
<rect x="31" y="25" width="1" height="1" fill="#C2D9FA" />
<rect x="0" y="26" width="32" height="1" fill="#FFFFFF" />
<rect x="0" y="27" width="1" height="5" fill="#FFFFFF" />
<rect x="1" y="27" width="7" height="1" fill="#0045FF" />
<rect x="8" y="27" width="1" height="5" fill="#FFFFFF" />
<rect x="9" y="27" width="1" height="3" fill="#000000" />
<rect x="10" y="27" width="2" height="2" fill="#FFFFFF" />
<rect x="12" y="27" width="3" height="1" fill="#000000" />
<rect x="15" y="27" width="1" height="5" fill="#FFFFFF" />
<rect x="16" y="27" width="2" height="1" fill="#000000" />
<rect x="18" y="27" width="5" height="1" fill="#FFFFFF" />
<rect x="23" y="27" width="8" height="1" fill="#A4A4A4" />
<rect x="31" y="27" width="1" height="5" fill="#FFFFFF" />
<rect x="1" y="28" width="1" height="1" fill="#0045FF" />
<rect x="2" y="28" width="1" height="1" fill="#FFFFFF" />
<rect x="3" y="28" width="2" height="1" fill="#0045FF" />
<rect x="5" y="28" width="2" height="1" fill="#FFFFFF" />
<rect x="7" y="28" width="1" height="1" fill="#0045FF" />
<rect x="12" y="28" width="1" height="4" fill="#FFFFFF" />
<rect x="13" y="28" width="1" height="3" fill="#000000" />
<rect x="14" y="28" width="1" height="4" fill="#FFFFFF" />
<rect x="16" y="28" width="2" height="1" fill="#FFFFFF" />
<rect x="18" y="28" width="1" height="1" fill="#000000" />
<rect x="19" y="28" width="4" height="4" fill="#FFFFFF" />
<rect x="23" y="28" width="1" height="3" fill="#A4A4A4" />
<rect x="24" y="28" width="2" height="2" fill="#99E550" />
<rect x="26" y="28" width="2" height="1" fill="#FFFFFF" />
<rect x="28" y="28" width="1" height="1" fill="#FBF236" />
<rect x="29" y="28" width="1" height="1" fill="#FFFFFF" />
<rect x="30" y="28" width="1" height="3" fill="#A4A4A4" />
<rect x="1" y="29" width="2" height="1" fill="#063BC9" />
<rect x="3" y="29" width="1" height="1" fill="#FFFFFF" />
<rect x="4" y="29" width="4" height="1" fill="#063BC9" />
<rect x="10" y="29" width="1" height="1" fill="#FFFFFF" />
<rect x="11" y="29" width="1" height="1" fill="#000000" />
<rect x="16" y="29" width="1" height="3" fill="#FFFFFF" />
<rect x="17" y="29" width="1" height="2" fill="#000000" />
<rect x="18" y="29" width="1" height="3" fill="#FFFFFF" />
<rect x="26" y="29" width="1" height="1" fill="#FFFFFF" />
<rect x="27" y="29" width="1" height="1" fill="#FBF236" />
<rect x="28" y="29" width="1" height="1" fill="#FFFFFF" />
<rect x="29" y="29" width="1" height="1" fill="#FBF236" />
<rect x="1" y="30" width="7" height="1" fill="#0D3294" />
<rect x="9" y="30" width="1" height="2" fill="#FFFFFF" />
<rect x="10" y="30" width="1" height="1" fill="#000000" />
<rect x="11" y="30" width="1" height="2" fill="#FFFFFF" />
<rect x="24" y="30" width="6" height="1" fill="#A4A4A4" />
<rect x="1" y="31" width="7" height="1" fill="#FFFFFF" />
<rect x="10" y="31" width="1" height="1" fill="#FFFFFF" />
<rect x="13" y="31" width="1" height="1" fill="#FFFFFF" />
<rect x="17" y="31" width="1" height="1" fill="#FFFFFF" />
<rect x="23" y="31" width="8" height="1" fill="#FFFFFF" />
</svg>