<?xml version="1.0" encoding="UTF-8" ?>
<svg version="1.1" width="32" height="32" xmlns="http://www.w3.org/2000/svg" shape-rendering="crispEdges">
<rect x="0" y="0" width="32" height="1" fill="#FF0000" />
<rect x="0" y="1" width="3" height="1" fill="#FF0101" />
<rect x="3" y="1" width="29" height="1" fill="#FF0000" />
<rect x="0" y="2" width="3" height="1" fill="#FF0505" />
<rect x="3" y="2" width="3" height="1" fill="#FF0404" />
<rect x="6" y="2" width="2" height="1" fill="#FF0303" />
<rect x="8" y="2" width="1" height="1" fill="#FF0202" />
<rect x="9" y="2" width="2" height="1" fill="#000000" />
<rect x="11" y="2" width="3" height="1" fill="#FF0101" />
<rect x="14" y="2" width="7" height="1" fill="#FF0000" />
<rect x="21" y="2" width="2" height="1" fill="#000000" />
<rect x="23" y="2" width="9" height="1" fill="#FF0000" />
<rect x="0" y="3" width="3" height="1" fill="#FF0909" />
<rect x="3" y="3" width="3" height="1" fill="#FF0808" />
<rect x="6" y="3" width="3" height="1" fill="#FF0707" />
<rect x="9" y="3" width="1" height="1" fill="#FF0606" />
<rect x="10" y="3" width="2" height="5" fill="#000000" />
<rect x="12" y="3" width="1" height="1" fill="#FF0505" />
<rect x="13" y="3" width="1" height="1" fill="#F60505" />
<rect x="14" y="3" width="3" height="1" fill="#FF0404" />
<rect x="17" y="3" width="2" height="1" fill="#FF0303" />
<rect x="19" y="3" width="1" height="1" fill="#FF0202" />
<rect x="20" y="3" width="2" height="5" fill="#000000" />
<rect x="22" y="3" width="3" height="1" fill="#FF0101" />
<rect x="25" y="3" width="7" height="1" fill="#FF0000" />
<rect x="0" y="4" width="1" height="1" fill="#FF0E0E" />
<rect x="1" y="4" width="2" height="1" fill="#FF0D0D" />
<rect x="3" y="4" width="3" height="1" fill="#FF0C0C" />
<rect x="6" y="4" width="3" height="1" fill="#FF0B0B" />
<rect x="9" y="4" width="1" height="1" fill="#FF0A0A" />
<rect x="12" y="4" width="1" height="1" fill="#E80909" />
<rect x="13" y="4" width="1" height="1" fill="#DA0808" />
<rect x="14" y="4" width="1" height="1" fill="#CB0606" />
<rect x="15" y="4" width="2" height="1" fill="#AA0606" />
<rect x="17" y="4" width="1" height="1" fill="#C70606" />
<rect x="18" y="4" width="1" height="1" fill="#DA0606" />
<rect x="19" y="4" width="1" height="1" fill="#E80707" />
<rect x="22" y="4" width="3" height="1" fill="#FF0505" />
<rect x="25" y="4" width="3" height="1" fill="#FF0404" />
<rect x="28" y="4" width="2" height="1" fill="#FF0303" />
<rect x="30" y="4" width="2" height="1" fill="#FF0202" />
<rect x="0" y="5" width="1" height="1" fill="#FF1212" />
<rect x="1" y="5" width="2" height="1" fill="#FF1111" />
<rect x="3" y="5" width="3" height="1" fill="#FF1010" />
<rect x="6" y="5" width="3" height="1" fill="#FF0F0F" />
<rect x="9" y="5" width="1" height="1" fill="#FF0E0E" />
<rect x="12" y="5" width="1" height="1" fill="#BC0A0A" />
<rect x="13" y="5" width="1" height="1" fill="#A90808" />
<rect x="14" y="5" width="1" height="1" fill="#9E0505" />
<rect x="15" y="5" width="1" height="1" fill="#AC0505" />
<rect x="16" y="5" width="1" height="1" fill="#AA0404" />
<rect x="17" y="5" width="1" height="1" fill="#AB0505" />
<rect x="18" y="5" width="1" height="1" fill="#B60707" />
<rect x="19" y="5" width="1" height="1" fill="#C70808" />
<rect x="22" y="5" width="3" height="1" fill="#FF0909" />
<rect x="25" y="5" width="3" height="1" fill="#FF0808" />
<rect x="28" y="5" width="3" height="1" fill="#FF0707" />
<rect x="31" y="5" width="1" height="1" fill="#FF0606" />
<rect x="0" y="6" width="1" height="1" fill="#FF1616" />
<rect x="1" y="6" width="3" height="1" fill="#FF1515" />
<rect x="4" y="6" width="2" height="1" fill="#FF1414" />
<rect x="6" y="6" width="3" height="1" fill="#FF1313" />
<rect x="9" y="6" width="1" height="1" fill="#F21111" />
<rect x="12" y="6" width="1" height="1" fill="#000000" />
<rect x="13" y="6" width="6" height="2" fill="#FF0000" />
<rect x="19" y="6" width="1" height="1" fill="#000000" />
<rect x="22" y="6" width="1" height="1" fill="#F20E0E" />
<rect x="23" y="6" width="2" height="1" fill="#FF0D0D" />
<rect x="25" y="6" width="3" height="1" fill="#FF0C0C" />
<rect x="28" y="6" width="3" height="1" fill="#FF0B0B" />
<rect x="31" y="6" width="1" height="1" fill="#FF0A0A" />
<rect x="0" y="7" width="1" height="1" fill="#FF1A1A" />
<rect x="1" y="7" width="3" height="1" fill="#FF1919" />
<rect x="4" y="7" width="2" height="1" fill="#FF1818" />
<rect x="6" y="7" width="3" height="1" fill="#FF1717" />
<rect x="9" y="7" width="1" height="1" fill="#E01313" />
<rect x="12" y="7" width="1" height="8" fill="#FF0000" />
<rect x="19" y="7" width="1" height="8" fill="#FF0000" />
<rect x="22" y="7" width="1" height="1" fill="#E01010" />
<rect x="23" y="7" width="1" height="1" fill="#F61111" />
<rect x="24" y="7" width="1" height="1" fill="#FF1111" />
<rect x="25" y="7" width="3" height="1" fill="#FF1010" />
<rect x="28" y="7" width="3" height="1" fill="#FF0F0F" />
<rect x="31" y="7" width="1" height="1" fill="#FF0E0E" />
<rect x="0" y="8" width="1" height="1" fill="#FF1E1E" />
<rect x="1" y="8" width="3" height="1" fill="#FF1D1D" />
<rect x="4" y="8" width="3" height="1" fill="#FF1C1C" />
<rect x="7" y="8" width="2" height="1" fill="#FF1B1B" />
<rect x="9" y="8" width="1" height="1" fill="#C71313" />
<rect x="10" y="8" width="1" height="2" fill="#000000" />
<rect x="11" y="8" width="1" height="7" fill="#C50000" />
<rect x="13" y="8" width="2" height="1" fill="#000000" />
<rect x="15" y="8" width="2" height="6" fill="#FF0000" />
<rect x="17" y="8" width="2" height="1" fill="#000000" />
<rect x="20" y="8" width="1" height="7" fill="#C50000" />
<rect x="21" y="8" width="1" height="2" fill="#000000" />
<rect x="22" y="8" width="1" height="1" fill="#C71010" />
<rect x="23" y="8" width="1" height="1" fill="#E81313" />
<rect x="24" y="8" width="1" height="1" fill="#FC1515" />
<rect x="25" y="8" width="1" height="1" fill="#FF1515" />
<rect x="26" y="8" width="2" height="1" fill="#FF1414" />
<rect x="28" y="8" width="3" height="1" fill="#FF1313" />
<rect x="31" y="8" width="1" height="1" fill="#FF1212" />
<rect x="0" y="9" width="1" height="1" fill="#FF2222" />
<rect x="1" y="9" width="3" height="1" fill="#FF2121" />
<rect x="4" y="9" width="3" height="1" fill="#FF2020" />
<rect x="7" y="9" width="1" height="1" fill="#FF1F1F" />
<rect x="8" y="9" width="1" height="1" fill="#DA1A1A" />
<rect x="9" y="9" width="1" height="1" fill="#B31212" />
<rect x="13" y="9" width="1" height="1" fill="#FF0000" />
<rect x="14" y="9" width="1" height="2" fill="#000000" />
<rect x="17" y="9" width="1" height="2" fill="#000000" />
<rect x="18" y="9" width="1" height="1" fill="#FF0000" />
<rect x="22" y="9" width="1" height="1" fill="#B60F0F" />
<rect x="23" y="9" width="1" height="1" fill="#DA1515" />
<rect x="24" y="9" width="1" height="1" fill="#F61919" />
<rect x="25" y="9" width="1" height="1" fill="#FF1919" />
<rect x="26" y="9" width="2" height="1" fill="#FF1818" />
<rect x="28" y="9" width="3" height="1" fill="#FF1717" />
<rect x="31" y="9" width="1" height="1" fill="#FF1616" />
<rect x="0" y="10" width="1" height="1" fill="#FF2626" />
<rect x="1" y="10" width="3" height="1" fill="#FF2525" />
<rect x="4" y="10" width="3" height="1" fill="#FF2424" />
<rect x="7" y="10" width="1" height="1" fill="#FF2323" />
<rect x="8" y="10" width="1" height="1" fill="#CB1B1B" />
<rect x="9" y="10" width="1" height="1" fill="#A11010" />
<rect x="10" y="10" width="1" height="4" fill="#9D0000" />
<rect x="13" y="10" width="1" height="1" fill="#FFC400" />
<rect x="18" y="10" width="1" height="1" fill="#FFC400" />
<rect x="21" y="10" width="1" height="4" fill="#9D0000" />
<rect x="22" y="10" width="1" height="1" fill="#AB0E0E" />
<rect x="23" y="10" width="1" height="1" fill="#CB1616" />
<rect x="24" y="10" width="1" height="1" fill="#ED1B1B" />
<rect x="25" y="10" width="1" height="1" fill="#FF1D1D" />
<rect x="26" y="10" width="3" height="1" fill="#FF1C1C" />
<rect x="29" y="10" width="2" height="1" fill="#FF1B1B" />
<rect x="31" y="10" width="1" height="1" fill="#FF1A1A" />
<rect x="0" y="11" width="2" height="1" fill="#FF2A2A" />
<rect x="2" y="11" width="2" height="1" fill="#FF2929" />
<rect x="4" y="11" width="3" height="1" fill="#FF2828" />
<rect x="7" y="11" width="1" height="1" fill="#FF2727" />
<rect x="8" y="11" width="1" height="1" fill="#C41C1C" />
<rect x="9" y="11" width="1" height="1" fill="#9B0F0F" />
<rect x="13" y="11" width="1" height="2" fill="#FF0000" />
<rect x="14" y="11" width="1" height="1" fill="#FFC400" />
<rect x="17" y="11" width="1" height="1" fill="#FFC400" />
<rect x="18" y="11" width="1" height="2" fill="#FF0000" />
<rect x="22" y="11" width="1" height="1" fill="#AC0D0D" />
<rect x="23" y="11" width="1" height="1" fill="#C41717" />
<rect x="24" y="11" width="1" height="1" fill="#E61E1E" />
<rect x="25" y="11" width="1" height="1" fill="#FF2121" />
<rect x="26" y="11" width="3" height="1" fill="#FF2020" />
<rect x="29" y="11" width="2" height="1" fill="#FF1F1F" />
<rect x="31" y="11" width="1" height="1" fill="#FF1E1E" />
<rect x="0" y="12" width="2" height="1" fill="#FF2E2E" />
<rect x="2" y="12" width="3" height="1" fill="#FF2D2D" />
<rect x="5" y="12" width="2" height="1" fill="#FF2C2C" />
<rect x="7" y="12" width="1" height="1" fill="#FF2B2B" />
<rect x="8" y="12" width="1" height="1" fill="#AA1D1D" />
<rect x="9" y="12" width="1" height="1" fill="#9B1111" />
<rect x="14" y="12" width="1" height="1" fill="#FF0000" />
<rect x="17" y="12" width="1" height="1" fill="#FF0000" />
<rect x="22" y="12" width="1" height="1" fill="#AC0E0E" />
<rect x="23" y="12" width="1" height="1" fill="#C41A1A" />
<rect x="24" y="12" width="1" height="1" fill="#E62222" />
<rect x="25" y="12" width="1" height="1" fill="#FF2525" />
<rect x="26" y="12" width="3" height="1" fill="#FF2424" />
<rect x="29" y="12" width="3" height="1" fill="#FF2323" />
<rect x="0" y="13" width="2" height="1" fill="#FF3232" />
<rect x="2" y="13" width="3" height="1" fill="#FF3131" />
<rect x="5" y="13" width="2" height="1" fill="#FF3030" />
<rect x="7" y="13" width="1" height="1" fill="#FF2F2F" />
<rect x="8" y="13" width="1" height="1" fill="#C72525" />
<rect x="9" y="13" width="1" height="1" fill="#A11616" />
<rect x="13" y="13" width="2" height="1" fill="#000000" />
<rect x="17" y="13" width="2" height="1" fill="#000000" />
<rect x="22" y="13" width="1" height="1" fill="#AB1313" />
<rect x="23" y="13" width="1" height="1" fill="#CB2020" />
<rect x="24" y="13" width="2" height="1" fill="#FF2929" />
<rect x="26" y="13" width="3" height="1" fill="#FF2828" />
<rect x="29" y="13" width="3" height="1" fill="#FF2727" />
<rect x="0" y="14" width="2" height="1" fill="#FF3636" />
<rect x="2" y="14" width="3" height="1" fill="#FF3535" />
<rect x="5" y="14" width="3" height="1" fill="#FF3434" />
<rect x="8" y="14" width="1" height="1" fill="#E32E2E" />
<rect x="9" y="14" width="1" height="1" fill="#B31E1E" />
<rect x="10" y="14" width="1" height="3" fill="#BA1111" />
<rect x="13" y="14" width="1" height="6" fill="#FF0000" />
<rect x="14" y="14" width="4" height="1" fill="#FFC400" />
<rect x="18" y="14" width="1" height="6" fill="#FF0000" />
<rect x="21" y="14" width="1" height="1" fill="#BA0D0D" />
<rect x="22" y="14" width="1" height="1" fill="#B61B1B" />
<rect x="23" y="14" width="1" height="1" fill="#DA2727" />
<rect x="24" y="14" width="3" height="1" fill="#FF2D2D" />
<rect x="27" y="14" width="2" height="1" fill="#FF2C2C" />
<rect x="29" y="14" width="3" height="1" fill="#FF2B2B" />
<rect x="0" y="15" width="2" height="1" fill="#FF3A3A" />
<rect x="2" y="15" width="3" height="1" fill="#FF3939" />
<rect x="5" y="15" width="3" height="1" fill="#FF3838" />
<rect x="8" y="15" width="1" height="1" fill="#FF3737" />
<rect x="9" y="15" width="1" height="1" fill="#C72B2B" />
<rect x="11" y="15" width="1" height="3" fill="#BA1111" />
<rect x="12" y="15" width="1" height="1" fill="#C50000" />
<rect x="14" y="15" width="1" height="2" fill="#FF0000" />
<rect x="15" y="15" width="2" height="1" fill="#FFC400" />
<rect x="17" y="15" width="1" height="2" fill="#FF0000" />
<rect x="19" y="15" width="1" height="1" fill="#C50000" />
<rect x="20" y="15" width="2" height="1" fill="#BA1111" />
<rect x="22" y="15" width="1" height="1" fill="#C72424" />
<rect x="23" y="15" width="1" height="1" fill="#FF3232" />
<rect x="24" y="15" width="3" height="1" fill="#FF3131" />
<rect x="27" y="15" width="2" height="1" fill="#FF3030" />
<rect x="29" y="15" width="3" height="1" fill="#FF2F2F" />
<rect x="0" y="16" width="2" height="1" fill="#FF3E3E" />
<rect x="2" y="16" width="3" height="1" fill="#FF3D3D" />
<rect x="5" y="16" width="3" height="1" fill="#FF3C3C" />
<rect x="8" y="16" width="1" height="1" fill="#FF3B3B" />
<rect x="9" y="16" width="1" height="1" fill="#E33535" />
<rect x="12" y="16" width="1" height="1" fill="#BA1111" />
<rect x="15" y="16" width="1" height="1" fill="#000000" />
<rect x="16" y="16" width="1" height="1" fill="#313131" />
<rect x="19" y="16" width="2" height="1" fill="#BA1111" />
<rect x="21" y="16" width="1" height="1" fill="#BF2323" />
<rect x="22" y="16" width="1" height="1" fill="#E33131" />
<rect x="23" y="16" width="1" height="1" fill="#FF3636" />
<rect x="24" y="16" width="3" height="1" fill="#FF3535" />
<rect x="27" y="16" width="3" height="1" fill="#FF3434" />
<rect x="30" y="16" width="2" height="1" fill="#FF3333" />
<rect x="0" y="17" width="3" height="1" fill="#FF4242" />
<rect x="3" y="17" width="2" height="1" fill="#FF4141" />
<rect x="5" y="17" width="3" height="1" fill="#FF4040" />
<rect x="8" y="17" width="2" height="1" fill="#FF3F3F" />
<rect x="10" y="17" width="1" height="1" fill="#E33939" />
<rect x="12" y="17" width="1" height="3" fill="#FF0000" />
<rect x="14" y="17" width="1" height="1" fill="#000000" />
<rect x="15" y="17" width="1" height="1" fill="#1A1919" />
<rect x="16" y="17" width="1" height="1" fill="#000000" />
<rect x="17" y="17" width="1" height="1" fill="#4F4F4F" />
<rect x="19" y="17" width="1" height="3" fill="#FF0000" />
<rect x="20" y="17" width="1" height="1" fill="#BD2626" />
<rect x="21" y="17" width="1" height="1" fill="#E33535" />
<rect x="22" y="17" width="2" height="1" fill="#FF3A3A" />
<rect x="24" y="17" width="3" height="1" fill="#FF3939" />
<rect x="27" y="17" width="3" height="1" fill="#FF3838" />
<rect x="30" y="17" width="2" height="1" fill="#FF3737" />
<rect x="0" y="18" width="3" height="1" fill="#FF4646" />
<rect x="3" y="18" width="2" height="1" fill="#FF4545" />
<rect x="5" y="18" width="3" height="1" fill="#FF4444" />
<rect x="8" y="18" width="2" height="1" fill="#FF4343" />
<rect x="10" y="18" width="2" height="2" fill="#FF0000" />
<rect x="14" y="18" width="1" height="1" fill="#4F4F4F" />
<rect x="15" y="18" width="1" height="1" fill="#000000" />
<rect x="16" y="18" width="1" height="1" fill="#313131" />
<rect x="17" y="18" width="1" height="1" fill="#000000" />
<rect x="20" y="18" width="2" height="2" fill="#FF0000" />
<rect x="22" y="18" width="2" height="1" fill="#FF3E3E" />
<rect x="24" y="18" width="3" height="1" fill="#FF3D3D" />
<rect x="27" y="18" width="3" height="1" fill="#FF3C3C" />
<rect x="30" y="18" width="2" height="1" fill="#FF3B3B" />
<rect x="0" y="19" width="3" height="1" fill="#FF4A4A" />
<rect x="3" y="19" width="3" height="1" fill="#FF4949" />
<rect x="6" y="19" width="2" height="1" fill="#FF4848" />
<rect x="8" y="19" width="1" height="1" fill="#FF4747" />
<rect x="9" y="19" width="1" height="1" fill="#9D0000" />
<rect x="14" y="19" width="1" height="4" fill="#000000" />
<rect x="15" y="19" width="3" height="1" fill="#4F4F4F" />
<rect x="22" y="19" width="1" height="1" fill="#9D0000" />
<rect x="23" y="19" width="2" height="1" fill="#FF4242" />
<rect x="25" y="19" width="2" height="1" fill="#FF4141" />
<rect x="27" y="19" width="3" height="1" fill="#FF4040" />
<rect x="30" y="19" width="2" height="1" fill="#FF3F3F" />
<rect x="0" y="20" width="3" height="1" fill="#FF4E4E" />
<rect x="3" y="20" width="3" height="1" fill="#FF4D4D" />
<rect x="6" y="20" width="2" height="1" fill="#FF4C4C" />
<rect x="8" y="20" width="1" height="1" fill="#9D0000" />
<rect x="9" y="20" width="4" height="1" fill="#F10000" />
<rect x="13" y="20" width="1" height="1" fill="#000000" />
<rect x="15" y="20" width="1" height="4" fill="#1A1919" />
<rect x="16" y="20" width="1" height="3" fill="#313131" />
<rect x="17" y="20" width="1" height="2" fill="#4F4F4F" />
<rect x="18" y="20" width="5" height="1" fill="#F10000" />
<rect x="23" y="20" width="1" height="1" fill="#9D0000" />
<rect x="24" y="20" width="1" height="1" fill="#FF4646" />
<rect x="25" y="20" width="2" height="1" fill="#FF4545" />
<rect x="27" y="20" width="3" height="1" fill="#FF4444" />
<rect x="30" y="20" width="2" height="1" fill="#FF4343" />
<rect x="0" y="21" width="3" height="1" fill="#FF5252" />
<rect x="3" y="21" width="3" height="1" fill="#FF5151" />
<rect x="6" y="21" width="2" height="1" fill="#FF5050" />
<rect x="8" y="21" width="5" height="1" fill="#000000" />
<rect x="13" y="21" width="1" height="1" fill="#E30000" />
<rect x="18" y="21" width="6" height="1" fill="#E30000" />
<rect x="24" y="21" width="1" height="1" fill="#FF4A4A" />
<rect x="25" y="21" width="3" height="1" fill="#FF4949" />
<rect x="28" y="21" width="2" height="1" fill="#FF4848" />
<rect x="30" y="21" width="2" height="1" fill="#FF4747" />
<rect x="0" y="22" width="1" height="1" fill="#FF5757" />
<rect x="1" y="22" width="2" height="1" fill="#FF5656" />
<rect x="3" y="22" width="2" height="1" fill="#FF5555" />
<rect x="5" y="22" width="3" height="2" fill="#000000" />
<rect x="8" y="22" width="3" height="1" fill="#D50000" />
<rect x="11" y="22" width="3" height="1" fill="#000000" />
<rect x="17" y="22" width="1" height="1" fill="#313131" />
<rect x="18" y="22" width="6" height="1" fill="#D50000" />
<rect x="24" y="22" width="1" height="4" fill="#9D0000" />
<rect x="25" y="22" width="3" height="1" fill="#FF4D4D" />
<rect x="28" y="22" width="2" height="1" fill="#FF4C4C" />
<rect x="30" y="22" width="2" height="1" fill="#FF4B4B" />
<rect x="0" y="23" width="4" height="3" fill="#FF5A5A" />
<rect x="4" y="23" width="1" height="1" fill="#FF5959" />
<rect x="8" y="23" width="3" height="1" fill="#000000" />
<rect x="11" y="23" width="4" height="1" fill="#C70000" />
<rect x="16" y="23" width="1" height="1" fill="#1A1919" />
<rect x="17" y="23" width="7" height="1" fill="#C70000" />
<rect x="25" y="23" width="3" height="1" fill="#FF5151" />
<rect x="28" y="23" width="3" height="1" fill="#FF5050" />
<rect x="31" y="23" width="1" height="1" fill="#FF4F4F" />
<rect x="4" y="24" width="1" height="4" fill="#000000" />
<rect x="5" y="24" width="1" height="1" fill="#FF5A5A" />
<rect x="6" y="24" width="1" height="1" fill="#000000" />
<rect x="7" y="24" width="1" height="2" fill="#9D0000" />
<rect x="8" y="24" width="16" height="1" fill="#B90000" />
<rect x="25" y="24" width="3" height="1" fill="#FF5555" />
<rect x="28" y="24" width="3" height="1" fill="#FF5454" />
<rect x="31" y="24" width="1" height="1" fill="#FF5353" />
<rect x="5" y="25" width="1" height="3" fill="#000000" />
<rect x="6" y="25" width="1" height="1" fill="#FF5A5A" />
<rect x="8" y="25" width="16" height="1" fill="#AB0000" />
<rect x="25" y="25" width="1" height="1" fill="#FF5A5A" />
<rect x="26" y="25" width="2" height="1" fill="#FF5959" />
<rect x="28" y="25" width="3" height="1" fill="#FF5858" />
<rect x="31" y="25" width="1" height="1" fill="#FF5757" />
<rect x="0" y="26" width="4" height="2" fill="#000000" />
<rect x="6" y="26" width="26" height="2" fill="#000000" />
<rect x="0" y="28" width="2" height="4" fill="#000000" />
<rect x="2" y="28" width="5" height="2" fill="#FF0000" />
<rect x="7" y="28" width="3" height="4" fill="#000000" />
<rect x="10" y="28" width="1" height="2" fill="#FFFFFF" />
<rect x="11" y="28" width="21" height="1" fill="#000000" />
<rect x="11" y="29" width="2" height="3" fill="#000000" />
<rect x="13" y="29" width="6" height="1" fill="#FFFFFF" />
<rect x="19" y="29" width="2" height="3" fill="#000000" />
<rect x="21" y="29" width="3" height="1" fill="#FFFFFF" />
<rect x="24" y="29" width="8" height="3" fill="#000000" />
<rect x="2" y="30" width="5" height="2" fill="#000000" />
<rect x="10" y="30" width="1" height="2" fill="#000000" />
<rect x="13" y="30" width="6" height="2" fill="#000000" />
<rect x="21" y="30" width="3" height="2" fill="#000000" />
</svg>